<svg xmlns="http://www.w3.org/2000/svg" xmlns:xlink="http://www.w3.org/1999/xlink" width="108.005" height="84.589" viewBox="0 0 108.005 84.589">
  <defs>
    <linearGradient id="linear-gradient" x1="0.5" y1="1" x2="0.5" gradientUnits="objectBoundingBox">
      <stop offset="0" stop-color="#f6780d"/>
      <stop offset="0.382" stop-color="#fa910d"/>
      <stop offset="0.732" stop-color="#fda20d"/>
      <stop offset="1" stop-color="#ffa80d"/>
    </linearGradient>
  </defs>
  <g id="Group_3107" data-name="Group 3107" transform="translate(-902.458 -132.909)">
    <path id="Path_10022" data-name="Path 10022" d="M92.38,741.564c3.91-3.1,5.891-8.938,5.891-17.384,0-14.036-5.853-22.418-15.654-22.418-10.141,0-16.2,8.382-16.2,22.418,0,14.42,5.6,21.138,17.6,21.138h16.813v-5.8l-.577.231A32.726,32.726,0,0,1,92.38,741.564ZM92,724.607c0,5.02-.923,16.694-9.506,16.694-8.54,0-9.818-10.461-9.818-16.694,0-12.672,3.134-18.834,9.573-18.834C88.723,705.773,92,712.11,92,724.607Zm40.517,9.016c0,7.742-5.715,12.361-15.288,12.361a37.39,37.39,0,0,1-9.87-1.294l-.3-.089v-6.22l.6.283c1.511.715,6.107,2.883,10.357,2.883,5.233,0,8.232-2.532,8.232-6.952,0-4.654-4.288-6.848-9.261-9.382-1.024-.525-2.079-1.064-3.128-1.641-3.362-1.816-7.226-4.688-7.226-10.786,0-6.8,5.225-11.023,13.644-11.023a50.762,50.762,0,0,1,9.163,1.046l.334.072v5.865l-.594-.268a24.665,24.665,0,0,0-9.881-2.52c-4.091,0-6.952,2.356-6.952,5.732,0,4.184,4.04,6.24,8.318,8.414a49.841,49.841,0,0,1,4.835,2.687C130.278,725.967,132.522,728.073,132.522,733.623Zm31.55,7.254v4.44H137.957V702.431h5.9v38.447Z" transform="translate(842.086 -568.853)" fill="url(#linear-gradient)"/>
    <g id="Arabic_thinner" data-name="Arabic thinner" transform="translate(902.501 199.705)">
      <g id="word_03" data-name="word 03" transform="translate(0 0)">
        <path id="Path_10023" data-name="Path 10023" d="M66.41,736.057a2.6,2.6,0,0,1-1.044-.231,6.1,6.1,0,0,1-1.032-.6l.012-.058A6.467,6.467,0,0,0,66,734.88a4.537,4.537,0,0,0,1.5-.8A3.726,3.726,0,0,0,68.5,732.8a4.037,4.037,0,0,0,.363-1.753,7.55,7.55,0,0,0-.242-1.819,14.382,14.382,0,0,0-.634-1.9c.236-.158.456-.308.66-.447s.392-.265.585-.392a8.107,8.107,0,0,1,.606,1.646,10.486,10.486,0,0,1,.311,2.2l.009.2h1.661v1.471H69.994l-.023.182a3.467,3.467,0,0,1-.228.891,5.35,5.35,0,0,1-.458.894,6.36,6.36,0,0,1-.626.822,5.072,5.072,0,0,1-.729.666,3.668,3.668,0,0,1-.779.441A1.936,1.936,0,0,1,66.41,736.057Z" transform="translate(-64.334 -721.986)" fill="#591336"/>
        <rect id="Rectangle_1252" data-name="Rectangle 1252" width="3.807" height="1.472" transform="translate(7.436 8.549)" fill="#591336"/>
        <path id="Path_10024" data-name="Path 10024" d="M68.2,734.947v-1.47h1.817l-.006-.21q-.056-1.925-.11-3.947-.048-1.955-.1-3.829l.807-.32.6-.242-.133,7.747.395-.556a11.552,11.552,0,0,1,.977-1.2,8.185,8.185,0,0,1,1.084-.972,5.639,5.639,0,0,1,1.107-.652,2.609,2.609,0,0,1,1.029-.23,2.292,2.292,0,0,1,.951.213,2.708,2.708,0,0,1,.9.7,5.45,5.45,0,0,1,.807,1.315,10.689,10.689,0,0,1,.646,2.018l.037.159h1.125v1.47Zm7.154-4.478a2.367,2.367,0,0,0-1,.248,6.17,6.17,0,0,0-1.006.617,10.992,10.992,0,0,0-.989.853c-.314.309-.626.629-.92.949l-.309.34H77.36l.355-.47-.026-.1a5.732,5.732,0,0,0-.43-1.107,3.176,3.176,0,0,0-.539-.755,1.931,1.931,0,0,0-.643-.441A1.906,1.906,0,0,0,75.359,730.469Z" transform="translate(-57.044 -724.928)" fill="#591336"/>
        <rect id="Rectangle_1253" data-name="Rectangle 1253" width="3.884" height="1.472" transform="translate(23.024 8.549)" fill="#591336"/>
        <path id="Path_10025" data-name="Path 10025" d="M73.656,734.829v-1.471h2.039l-.161-.3a4.91,4.91,0,0,1-.4-.946,2.762,2.762,0,0,1-.121-.753,2.79,2.79,0,0,1,.144-.885,2.329,2.329,0,0,1,.424-.747,2.014,2.014,0,0,1,.669-.513,2.132,2.132,0,0,1,.914-.187,2.313,2.313,0,0,1,1.28.317,2.195,2.195,0,0,1,.77.845,3.8,3.8,0,0,1,.386,1.234,9.6,9.6,0,0,1,.107,1.433c0,.378-.012.758-.04,1.122-.02.306-.043.591-.066.851ZM77.35,730.2a1.571,1.571,0,0,0-.519.086,1.51,1.51,0,0,0-.441.236,1.283,1.283,0,0,0-.32.375,1.014,1.014,0,0,0-.121.484,1.568,1.568,0,0,0,.182.706,2.4,2.4,0,0,0,.464.637,2.711,2.711,0,0,0,.643.47,1.662,1.662,0,0,0,.758.193h.023l.493-.1.04-.035a.855.855,0,0,0,.262-.43,2.025,2.025,0,0,0,.081-.579,2.987,2.987,0,0,0-.081-.657,2.24,2.24,0,0,0-.262-.652,1.671,1.671,0,0,0-.47-.513A1.217,1.217,0,0,0,77.35,730.2Zm-2.537-4.155,1.084-1.058c.075.072.144.138.208.2.1.1.2.19.294.283l.288.28c.086.084.182.179.291.291L75.9,727.093Zm2.532,0,1.081-1.052.879.856.2.2-1.081,1.047Z" transform="translate(-46.777 -724.809)" fill="#591336"/>
      </g>
      <g id="woed_02" data-name="woed 02" transform="translate(38.213 0.225)">
        <path id="Path_10026" data-name="Path 10026" d="M78.068,737.935c-.037-.611-.072-1.211-.11-1.79l-.124-2.03c-.043-.672-.084-1.349-.127-2.033s-.081-1.352-.121-2.053a2.048,2.048,0,0,1,.369-.6.609.609,0,0,1,.456-.2l1.514.45.049-.216a4.211,4.211,0,0,1,.4-1.052,4.386,4.386,0,0,1,.7-.972,3.534,3.534,0,0,1,.9-.686,1.787,1.787,0,0,1,.836-.216c.049,0,.092.006.138.006a2.73,2.73,0,0,1,1.254.352,2.348,2.348,0,0,1,.781.761,3.079,3.079,0,0,1,.412,1.061,6.452,6.452,0,0,1,.124,1.254,9.366,9.366,0,0,1-.075,1.185q-.074.554-.173,1.055c-.075.092-.153.184-.231.274l-.187.219-6.029-1.672.029.3c.049.473.1.966.15,1.479l.15,1.548c.052.519.1,1.035.153,1.551v.02c.046.458.089.9.136,1.332l-.346.17c-.13.066-.262.13-.389.193l-.1.049c-.121.061-.242.121-.369.182Zm4.789-10.077a1.222,1.222,0,0,0-.657.213,2.5,2.5,0,0,0-.554.5,2.887,2.887,0,0,0-.409.672,2.14,2.14,0,0,0-.187.75l-.009.161,3.348.9.029-.234c.02-.144.037-.3.055-.464a4.272,4.272,0,0,0,.029-.479,3.959,3.959,0,0,0-.058-.652,2.018,2.018,0,0,0-.231-.652,1.457,1.457,0,0,0-.5-.513A1.591,1.591,0,0,0,82.858,727.857Z" transform="translate(-77.587 -722.128)" fill="#591336"/>
        <path id="Path_10027" data-name="Path 10027" d="M82.9,736.243a2.637,2.637,0,0,1-1.05-.231,6.191,6.191,0,0,1-1.047-.6V735.4a5.447,5.447,0,0,0,1.326-.185,4.752,4.752,0,0,0,1.318-.577,4.434,4.434,0,0,0,1.038-.931,4.487,4.487,0,0,0,.709-1.237l.107-.277H82.331a1.6,1.6,0,0,1-.262-.046c-.061-.018-.112-.035-.156-.046a2.125,2.125,0,0,1-.816-.9,2.873,2.873,0,0,1-.265-1.22,3.886,3.886,0,0,1,.225-1.286,3.968,3.968,0,0,1,.617-1.162,3.382,3.382,0,0,1,.926-.833,2.127,2.127,0,0,1,1.119-.311,2.388,2.388,0,0,1,1.28.329,2.757,2.757,0,0,1,.9.891,4.326,4.326,0,0,1,.545,1.32,7.517,7.517,0,0,1,.2,1.592l0,.2h1.28v1.471H86.478l-.037.161A8.173,8.173,0,0,1,86,733.706a3.818,3.818,0,0,1-.608.992,5.109,5.109,0,0,1-1.3,1.194A2.362,2.362,0,0,1,82.9,736.243Zm.5-8.774a1.228,1.228,0,0,0-.652.181,1.626,1.626,0,0,0-.482.438,2.064,2.064,0,0,0-.3.583,2.138,2.138,0,0,0-.1.64,1.659,1.659,0,0,0,.216.822,1.283,1.283,0,0,0,.721.576l.035.012h2.333l.043-.153a2.292,2.292,0,0,0,.063-.343c.009-.1.014-.2.014-.285a4.571,4.571,0,0,0-.066-.709,2.5,2.5,0,0,0-.268-.8,2.018,2.018,0,0,0-.568-.666A1.59,1.59,0,0,0,83.4,727.469Z" transform="translate(-71.524 -722.397)" fill="#591336"/>
        <path id="Path_10028" data-name="Path 10028" d="M86.505,735.96c-.107-.107-.219-.21-.329-.317-.066-.063-.136-.127-.2-.2l1.081-1.049,1.078,1.049-.551.539c-.107.1-.216.208-.326.311l-.2.2Zm-3.275-3.746v-1.471h6.361l-.19-.308c-.161-.263-.329-.525-.5-.784s-.355-.513-.542-.747a5.543,5.543,0,0,0-.62-.652,3.551,3.551,0,0,0-.732-.493,1.989,1.989,0,0,0-.7-.187c-.078-.006-.159-.009-.236-.009a3.121,3.121,0,0,0-1.145.219,2.222,2.222,0,0,0-.288.144c-.023-.055-.043-.115-.063-.176a3.163,3.163,0,0,1,.236-.487,2.005,2.005,0,0,1,.375-.458,1.757,1.757,0,0,1,.5-.311,1.608,1.608,0,0,1,.634-.115,2.425,2.425,0,0,1,1.119.277,4.885,4.885,0,0,1,1.127.833,11.429,11.429,0,0,1,1.174,1.347c.4.536.833,1.145,1.277,1.814l.061.1h1.387v1.471Z" transform="translate(-66.959 -722.42)" fill="#591336"/>
        <rect id="Rectangle_1254" data-name="Rectangle 1254" width="4.104" height="1.472" transform="translate(25.441 8.324)" fill="#591336"/>
        <path id="Path_10029" data-name="Path 10029" d="M87.782,734.8V733.33h3.6l.035-.164q.056-.26.1-.5a2.856,2.856,0,0,0,.043-.476,5,5,0,0,0-.13-1.078,4.824,4.824,0,0,0-.349-1c.219-.147.432-.291.634-.433q.255-.177.536-.363a6.573,6.573,0,0,1,.4,1.45,11.471,11.471,0,0,1,.136,1.788c0,.412-.02.822-.061,1.225-.038.349-.078.695-.127,1.026Zm1.667-8.742,1.084-1.052,1.078,1.052c-.078.075-.15.147-.219.216-.11.109-.216.216-.326.32l-.531.522Z" transform="translate(-58.386 -725.006)" fill="#591336"/>
      </g>
      <g id="word_01" data-name="word 01" transform="translate(78.094 3.405)">
        <path id="Path_10030" data-name="Path 10030" d="M93.49,739.184l1.087-1.058,1.081,1.055-1.081,1.047Zm2.534,0,1.081-1.053c.182.182.366.363.548.539l.531.516-1.078,1.044Zm-.112-2.852a4.989,4.989,0,0,1-1.6-.262,4.1,4.1,0,0,1-2.425-2.168,5.163,5.163,0,0,1-.467-1.984,2.459,2.459,0,0,1,.026-.43c.023-.173.058-.372.1-.577s.1-.418.161-.631.136-.427.211-.626a4.553,4.553,0,0,1,.242-.53,2.016,2.016,0,0,1,.193-.306l.037-.035a.447.447,0,0,1,.144-.1c-.052.26-.1.528-.141.8a8.1,8.1,0,0,0-.092,1.2,6.346,6.346,0,0,0,.127,1.266,3.812,3.812,0,0,0,.435,1.168,3.373,3.373,0,0,0,.83.954,3.773,3.773,0,0,0,1.3.646,2.274,2.274,0,0,0,.441.078c.138.011.285.017.435.017a4.026,4.026,0,0,0,1.15-.173,4.326,4.326,0,0,0,1.087-.5,3.92,3.92,0,0,0,.894-.773,2.694,2.694,0,0,0,.542-1.026l.061-.219-.231-.035-.147-.029c-.066-.015-.144-.029-.222-.043l-.228-.043-.187-.04c-.236-.04-.49-.089-.753-.147a4.079,4.079,0,0,1-.715-.219,1.8,1.8,0,0,1-.51-.32.488.488,0,0,1-.164-.384,3.228,3.228,0,0,1,.141-.885,6.057,6.057,0,0,1,.392-1.021,7.178,7.178,0,0,1,.588-1.015,5.946,5.946,0,0,1,.729-.874,3.521,3.521,0,0,1,.8-.605,1.688,1.688,0,0,1,.8-.213,1.175,1.175,0,0,1,.349.043.432.432,0,0,1,.173.1.37.37,0,0,1,.089.153.809.809,0,0,1,.032.231,2.491,2.491,0,0,1-.046.47c-.032.167-.063.331-.1.485a2.051,2.051,0,0,0-.421-.075c-.133-.009-.248-.011-.346-.011l-.141,0H99.4a.925.925,0,0,0-.467.15,2.607,2.607,0,0,0-.418.329,4.822,4.822,0,0,0-.389.415c-.121.144-.234.288-.332.43s-.173.262-.234.366a.623.623,0,0,0-.11.288.552.552,0,0,0,.257.453,2.031,2.031,0,0,0,.487.262,4.782,4.782,0,0,0,.614.2c.231.061.435.112.623.156s.343.081.5.115a1.3,1.3,0,0,1,.259.084.37.37,0,0,1,.159.147.883.883,0,0,1,.115.271,2.658,2.658,0,0,1,.058.363c.012.136.017.263.017.387v.228a3.8,3.8,0,0,1-.239,1.162,4.209,4.209,0,0,1-.531.995,4.07,4.07,0,0,1-.758.8,4.789,4.789,0,0,1-.943.591,5.182,5.182,0,0,1-1.055.366A4.963,4.963,0,0,1,95.912,736.329Z" transform="translate(-91.418 -725.84)" fill="#591336"/>
        <path id="Path_10031" data-name="Path 10031" d="M96.59,736.051a2.637,2.637,0,0,1-1.05-.231,6.082,6.082,0,0,1-1.032-.588l.02-.089c.1,0,.185.009.274.009a4.732,4.732,0,0,0,1.295-.182,4.21,4.21,0,0,0,1.5-.781,3.963,3.963,0,0,0,1.044-1.329,4.062,4.062,0,0,0,.4-1.816,7.55,7.55,0,0,0-.242-1.819,14.015,14.015,0,0,0-.626-1.9l1.246-.83a7.54,7.54,0,0,1,.652,1.759,9.323,9.323,0,0,1,.265,2.214,7.119,7.119,0,0,1-.11,1.194,8.062,8.062,0,0,1-.329,1.263,7.506,7.506,0,0,1-.542,1.2,4.706,4.706,0,0,1-.738,1,3.477,3.477,0,0,1-.928.68A2.427,2.427,0,0,1,96.59,736.051Z" transform="translate(-85.6 -725.386)" fill="#591336"/>
        <path id="Path_10032" data-name="Path 10032" d="M99.043,736.243a2.626,2.626,0,0,1-1.05-.231,5.994,5.994,0,0,1-.954-.536,5.4,5.4,0,0,0,1.272-.188,4.542,4.542,0,0,0,1.309-.6,4.4,4.4,0,0,0,1.018-.96,5.309,5.309,0,0,0,.709-1.26l.11-.28h-3a1.644,1.644,0,0,1-.265-.046l-.141-.043a2.122,2.122,0,0,1-.825-.9,2.842,2.842,0,0,1-.268-1.22,3.886,3.886,0,0,1,.225-1.286,4.13,4.13,0,0,1,.626-1.162,3.3,3.3,0,0,1,.926-.833,2.12,2.12,0,0,1,1.119-.311,2.5,2.5,0,0,1,1.323.332,2.746,2.746,0,0,1,.9.9,4.223,4.223,0,0,1,.525,1.321,7,7,0,0,1,.17,1.565,8.35,8.35,0,0,1-.087,1.205,8.183,8.183,0,0,1-.254,1.148,6.822,6.822,0,0,1-.4,1.024,4.177,4.177,0,0,1-.507.819,5.084,5.084,0,0,1-1.3,1.188A2.359,2.359,0,0,1,99.043,736.243Zm.484-8.774a1.221,1.221,0,0,0-.652.181,1.673,1.673,0,0,0-.473.438,1.992,1.992,0,0,0-.3.583,2.051,2.051,0,0,0-.1.64,1.677,1.677,0,0,0,.213.819,1.283,1.283,0,0,0,.724.579l.035.012h2.35l.035-.162a2.555,2.555,0,0,0,.052-.334,2.649,2.649,0,0,0,.017-.285,4.954,4.954,0,0,0-.066-.709,2.653,2.653,0,0,0-.268-.8,2.014,2.014,0,0,0-.574-.669A1.634,1.634,0,0,0,99.527,727.469Z" transform="translate(-80.991 -725.578)" fill="#591336"/>
        <path id="Path_10033" data-name="Path 10033" d="M99.692,732.723a1.016,1.016,0,0,1-.15-.164.588.588,0,0,1-.1-.349,3.106,3.106,0,0,1,.035-.418c.023-.173.055-.358.1-.551s.092-.4.15-.608c.046-.159.1-.317.147-.473h.58a1.538,1.538,0,0,0,.245.591,1.262,1.262,0,0,0,.68.49l.032.012h3.241v-.2a4.261,4.261,0,0,0-.141-1,10.927,10.927,0,0,0-.79-2.131c-.133-.265-.257-.484-.369-.663.078-.092.156-.185.231-.271.107-.118.208-.236.309-.355,0,0,.277-.329.441-.522.075.121.159.274.257.45a11.042,11.042,0,0,1,.519,1.13c.179.444.349.94.507,1.474a12.076,12.076,0,0,1,.358,1.672c-.029.349-.058.692-.087,1.026-.026.286-.052.574-.075.862Z" transform="translate(-76.298 -726.109)" fill="#591336"/>
      </g>
    </g>
    <g id="Latin_Thicker" data-name="Latin Thicker" transform="translate(902.458 187.912)">
      <path id="Path_10034" data-name="Path 10034" d="M67.69,728.161a3.61,3.61,0,0,1-1.413-.265,3,3,0,0,1-1.07-.758,3.274,3.274,0,0,1-.66-1.159,4.756,4.756,0,0,1,.006-2.926,3.512,3.512,0,0,1,.672-1.165,3.086,3.086,0,0,1,1.061-.773,3.4,3.4,0,0,1,1.384-.277,3.456,3.456,0,0,1,1.4.277,3.053,3.053,0,0,1,1.061.767,3.357,3.357,0,0,1,.66,1.15,4.343,4.343,0,0,1,.225,1.419,4.241,4.241,0,0,1-.1.952,3.485,3.485,0,0,1-.3.839,3.215,3.215,0,0,1-.435.652c.185-.017.372-.026.556-.026.055,0,.424.009.424.009v1.254l-.779-.049c-.173-.012-.378-.017-.608-.017-.17,0-.346.006-.522.014s-.355.02-.531.035-.352.026-.525.034S67.845,728.161,67.69,728.161Zm-.02-6.09a1.968,1.968,0,0,0-.781.156,1.749,1.749,0,0,0-.62.447,2.124,2.124,0,0,0-.421.755,3.369,3.369,0,0,0-.161,1.087,3.314,3.314,0,0,0,.161,1.084,2.222,2.222,0,0,0,.427.755,1.739,1.739,0,0,0,.617.447,2.1,2.1,0,0,0,.79.15,1.978,1.978,0,0,0,.776-.15,1.729,1.729,0,0,0,.614-.447,2.184,2.184,0,0,0,.424-.752,3.806,3.806,0,0,0,0-2.174,2.173,2.173,0,0,0-.424-.755,1.7,1.7,0,0,0-.62-.447A1.948,1.948,0,0,0,67.669,722.072Z" transform="translate(-64.319 -720.838)" fill="#591336"/>
      <path id="Path_10035" data-name="Path 10035" d="M72.384,727.983,71.6,726H69.2l-.787,1.981H66.989l2.892-7.1h1.044l2.895,7.1Zm-1.28-3.223L71,724.5c-.2-.493-.4-1.027-.6-1.586-.21.568-.412,1.1-.608,1.583l-.1.266Z" transform="translate(-59.29 -720.757)" fill="#591336"/>
      <path id="Path_10036" data-name="Path 10036" d="M71.275,727.983v-5.858h-2.2v-1.243H74.8v1.243H72.6v5.858Z" transform="translate(-55.358 -720.756)" fill="#591336"/>
      <path id="Path_10037" data-name="Path 10037" d="M76.311,727.983,75.526,726h-2.4l-.787,1.981H70.916l2.895-7.1h1.044l2.892,7.1Zm-1.277-3.223-.107-.263c-.193-.49-.4-1.023-.6-1.586-.208.562-.412,1.1-.605,1.583l-.1.266Z" transform="translate(-51.895 -720.757)" fill="#591336"/>
      <path id="Path_10038" data-name="Path 10038" d="M77.474,727.983l-2.024-2.725h-.58v2.725H73.55v-7.1h1.966a7.186,7.186,0,0,1,.761.035,3.583,3.583,0,0,1,.594.11,2.219,2.219,0,0,1,1.185.724,2,2,0,0,1,.421,1.286,2.124,2.124,0,0,1-.147.81,1.871,1.871,0,0,1-.418.635,2.117,2.117,0,0,1-.629.429,2.39,2.39,0,0,1-.4.15l2.024,2.924Zm-2.07-3.968c.236,0,.441-.008.605-.023a2.047,2.047,0,0,0,.415-.078,1.034,1.034,0,0,0,.516-.323.886.886,0,0,0,.17-.571.822.822,0,0,0-.156-.516.936.936,0,0,0-.461-.288,2.435,2.435,0,0,0-.375-.069c-.156-.014-.358-.02-.6-.02h-.652v1.888Z" transform="translate(-46.934 -720.757)" fill="#591336"/>
      <path id="Path_10039" data-name="Path 10039" d="M78.967,728.188a4.647,4.647,0,0,1-.556-.035c-.187-.023-.366-.052-.536-.089a4.156,4.156,0,0,1-.47-.133,1.677,1.677,0,0,1-.358-.161l-.124-.075v-1.3l.375.19a3.168,3.168,0,0,0,.363.147,3.959,3.959,0,0,0,.433.118,4.56,4.56,0,0,0,.453.075,3.13,3.13,0,0,0,.421.029,3.184,3.184,0,0,0,.608-.055,1.525,1.525,0,0,0,.464-.164.711.711,0,0,0,.28-.283.926.926,0,0,0,.1-.467.671.671,0,0,0-.081-.349.712.712,0,0,0-.239-.234,1.643,1.643,0,0,0-.4-.176c-.173-.052-.355-.1-.539-.144-.259-.061-.519-.13-.767-.2a2.665,2.665,0,0,1-.727-.34,1.786,1.786,0,0,1-.542-.594,1.886,1.886,0,0,1-.2-.92,2.136,2.136,0,0,1,.21-.98,1.952,1.952,0,0,1,.571-.689,2.431,2.431,0,0,1,.81-.392,3.549,3.549,0,0,1,.94-.124,4.726,4.726,0,0,1,1.035.11,4.8,4.8,0,0,1,.882.277l.159.066V722.6l-.363-.15a5.382,5.382,0,0,0-.8-.268,3.813,3.813,0,0,0-.874-.107,2.068,2.068,0,0,0-.571.072.991.991,0,0,0-.366.182.659.659,0,0,0-.2.265.95.95,0,0,0-.069.372.65.65,0,0,0,.078.343.734.734,0,0,0,.234.228,1.6,1.6,0,0,0,.4.176c.167.049.346.1.531.144.262.061.519.133.77.208a2.667,2.667,0,0,1,.729.349,1.786,1.786,0,0,1,.548.605,1.925,1.925,0,0,1,.213.949,2.162,2.162,0,0,1-.222,1,1.945,1.945,0,0,1-.62.7,2.687,2.687,0,0,1-.894.392A4.464,4.464,0,0,1,78.967,728.188Z" transform="translate(-40.581 -720.838)" fill="#591336"/>
      <path id="Path_10040" data-name="Path 10040" d="M81.04,727.983v-5.858h-2.2v-1.243h5.72v1.243h-2.2v5.858Z" transform="translate(-36.972 -720.756)" fill="#591336"/>
      <path id="Path_10041" data-name="Path 10041" d="M86.074,727.983,85.287,726h-2.4l-.787,1.981H80.679l2.892-7.1h1.044l2.892,7.1Zm-1.28-3.223-.1-.263c-.2-.49-.4-1.023-.6-1.586-.208.562-.412,1.093-.606,1.583l-.107.266Z" transform="translate(-33.507 -720.757)" fill="#591336"/>
      <path id="Path_10042" data-name="Path 10042" d="M87.242,727.983l-2.03-2.725h-.577v2.725H83.312v-7.1h1.966a7.147,7.147,0,0,1,.761.035,3.474,3.474,0,0,1,.594.11,2.219,2.219,0,0,1,1.185.724,1.988,1.988,0,0,1,.421,1.286,2.181,2.181,0,0,1-.144.81,1.9,1.9,0,0,1-.418.635,2.116,2.116,0,0,1-.629.429,2.591,2.591,0,0,1-.4.15l2.024,2.924Zm-2.073-3.968c.236,0,.441-.008.6-.023a2.009,2.009,0,0,0,.415-.078,1.031,1.031,0,0,0,.519-.323.886.886,0,0,0,.17-.571.822.822,0,0,0-.159-.516.935.935,0,0,0-.461-.288,2.392,2.392,0,0,0-.372-.069c-.156-.014-.358-.02-.6-.02h-.649v1.888Z" transform="translate(-28.548 -720.757)" fill="#591336"/>
      <path id="Path_10043" data-name="Path 10043" d="M87.5,728.188a4.611,4.611,0,0,1-.557-.035c-.187-.023-.366-.052-.536-.089a4.159,4.159,0,0,1-.47-.133,1.782,1.782,0,0,1-.36-.161l-.124-.075v-1.3l.378.19a3.167,3.167,0,0,0,.363.147,4.093,4.093,0,0,0,.43.118c.15.032.3.058.456.075a3.069,3.069,0,0,0,.421.029,3.163,3.163,0,0,0,.608-.055,1.5,1.5,0,0,0,.464-.164.751.751,0,0,0,.28-.283.925.925,0,0,0,.1-.467.671.671,0,0,0-.081-.349.712.712,0,0,0-.239-.234,1.665,1.665,0,0,0-.4-.176c-.17-.052-.352-.1-.539-.144-.26-.061-.516-.13-.764-.2a2.666,2.666,0,0,1-.727-.34,1.756,1.756,0,0,1-.542-.594,1.855,1.855,0,0,1-.208-.92,2.136,2.136,0,0,1,.213-.98,1.952,1.952,0,0,1,.571-.689,2.4,2.4,0,0,1,.81-.392,3.543,3.543,0,0,1,.937-.124,4.733,4.733,0,0,1,1.038.11,4.871,4.871,0,0,1,.882.277l.159.066V722.6l-.363-.15a5.611,5.611,0,0,0-.8-.268,3.853,3.853,0,0,0-.874-.107,2.09,2.09,0,0,0-.574.072,1.038,1.038,0,0,0-.366.182.679.679,0,0,0-.193.265.951.951,0,0,0-.069.372.65.65,0,0,0,.078.343.706.706,0,0,0,.234.228,1.578,1.578,0,0,0,.4.176c.17.049.349.1.533.144.259.061.516.133.767.208a2.646,2.646,0,0,1,.732.349,1.787,1.787,0,0,1,.548.605,1.925,1.925,0,0,1,.213.949,2.163,2.163,0,0,1-.225,1,1.911,1.911,0,0,1-.617.7,2.677,2.677,0,0,1-.9.392A4.424,4.424,0,0,1,87.5,728.188Z" transform="translate(-24.526 -720.838)" fill="#591336"/>
      <path id="Path_10044" data-name="Path 10044" d="M88.842,727.983v-7.1h1.322v5.857h3.211v1.244Z" transform="translate(-18.134 -720.756)" fill="#591336"/>
      <path id="Path_10045" data-name="Path 10045" d="M90.8,727.983v-7.1h4.515v1.243H92.122v1.6H94.96v1.244H92.122v1.766H95.5v1.244Z" transform="translate(-14.446 -720.756)" fill="#591336"/>
      <path id="Path_10046" data-name="Path 10046" d="M97.984,727.983,97.2,726H94.8l-.787,1.981H92.592l2.892-7.1h1.044l2.892,7.1Zm-1.277-3.223-.1-.263c-.2-.49-.4-1.023-.6-1.586-.208.565-.409,1.1-.606,1.583l-.1.266Z" transform="translate(-11.071 -720.757)" fill="#591336"/>
      <path id="Path_10047" data-name="Path 10047" d="M98.831,728.188a4.663,4.663,0,0,1-1.577-.248,3.216,3.216,0,0,1-1.179-.709,2.972,2.972,0,0,1-.727-1.125,4.105,4.105,0,0,1-.242-1.439,4.494,4.494,0,0,1,.262-1.56,3.437,3.437,0,0,1,.779-1.219,3.5,3.5,0,0,1,1.228-.779,4.4,4.4,0,0,1,1.56-.271c.153,0,.3.009.456.02s.3.029.432.052a3.281,3.281,0,0,1,.389.081,2.1,2.1,0,0,1,.317.107l.159.069v1.24l-.343-.115a4.382,4.382,0,0,0-.643-.153,4.056,4.056,0,0,0-.721-.066,3.126,3.126,0,0,0-.989.156,2.392,2.392,0,0,0-.807.464,2.289,2.289,0,0,0-.554.773,2.737,2.737,0,0,0-.208,1.113,3.049,3.049,0,0,0,.173,1.087,1.9,1.9,0,0,0,.479.724,1.921,1.921,0,0,0,.753.421,3.5,3.5,0,0,0,1.038.144,4.591,4.591,0,0,0,.531-.029q.138-.013.259-.034V725.4h-1.5v-1.243h2.823v3.6l-.138.072a1.661,1.661,0,0,1-.355.13q-.208.061-.476.113c-.176.034-.369.06-.571.08S99.03,728.188,98.831,728.188Z" transform="translate(-6.336 -720.838)" fill="#591336"/>
      <path id="Path_10048" data-name="Path 10048" d="M100.473,728.107a3.64,3.64,0,0,1-1.021-.13,2.508,2.508,0,0,1-.781-.363,2.123,2.123,0,0,1-.545-.568,2.757,2.757,0,0,1-.323-.692,3.481,3.481,0,0,1-.115-.574,5.646,5.646,0,0,1-.032-.574v-4.325h1.321v4.342a2.985,2.985,0,0,0,.032.421,1.674,1.674,0,0,0,.086.372,1.239,1.239,0,0,0,.476.626,1.6,1.6,0,0,0,.914.23,1.93,1.93,0,0,0,.559-.072,1.339,1.339,0,0,0,.407-.2,1.113,1.113,0,0,0,.28-.3,1.387,1.387,0,0,0,.179-.4,1.683,1.683,0,0,0,.063-.314c.009-.124.017-.245.017-.363v-4.342h1.321v4.325c0,.162-.009.331-.026.5a3.271,3.271,0,0,1-.084.507,2.785,2.785,0,0,1-.311.744,2.221,2.221,0,0,1-.551.611,2.616,2.616,0,0,1-.8.395A3.673,3.673,0,0,1,100.473,728.107Z" transform="translate(-1.534 -720.757)" fill="#591336"/>
      <path id="Path_10049" data-name="Path 10049" d="M100.148,727.983v-7.1h4.514v1.243H101.47v1.6h2.839v1.244H101.47v1.766h3.375v1.244Z" transform="translate(3.16 -720.756)" fill="#591336"/>
    </g>
  </g>
</svg>
