<svg xmlns="http://www.w3.org/2000/svg" xmlns:xlink="http://www.w3.org/1999/xlink" width="393.658" height="674.312" viewBox="0 0 393.658 674.312">
  <defs>
    <radialGradient id="radial-gradient" cx="0.546" cy="-0.089" r="1.227" gradientTransform="translate(-22.485 9.63) rotate(180) scale(0.986 1)" gradientUnits="objectBoundingBox">
      <stop offset="0" stop-color="#99416e" stop-opacity="0"/>
      <stop offset="0.35" stop-opacity="0"/>
      <stop offset="1"/>
    </radialGradient>
  </defs>
  <path id="Intersection_13" data-name="Intersection 13" d="M-1361.21,1061.549h.051s5.147-.517,8.557-.517c3.442,0,6.2.32,4.671-.931-1.54-1.229-8.454-3.007-8.454-3.007a13.514,13.514,0,0,1-4.062-4.309c-1.271-2.479-2.149-1.24-2.345-.4-.95,2.708-8.65,4-10.046,4.217-2.139-.931-4.34-1.829-6.552-2.79.021-.2.021-.373.311-.434.7-.176,1.3-.227.5-1.033-.786-.806-1.6-1.489-1.664-1.819a3.987,3.987,0,0,0-1.178-2.149,5.4,5.4,0,0,0-2.087-1.416c-1.024-.383-1.685-.506-1.406-.775.051-.134.827.041,1.561.207.775.165,1.54.34,1.54.185,0-.3-2.025-1.674-2.719-2.355-.671-.693-.2-1.076-1.922-1.768a34.1,34.1,0,0,0-8.629-1.436c-1.054.062-4,.476-4,.734.135.248,1.282,1.323,1.913,2.2.558.754.992,1.891,1.787,2.439-.713-.341-1.4-.661-2.046-.992,0-.094-.155-.4-.248-.693-.166-.351-1.013-.9-2.853-1.508-1.623-.589-2.8-.878-3.028-.7-7.172-3.617-14.324-7.377-21.372-11.273a3.064,3.064,0,0,0,1.561.362c.692-.155-.145-.92-.248-1.446a7.127,7.127,0,0,0-.7-1.55s2.1.981,1.87.589a10.671,10.671,0,0,0-3.773-3.927c-2.532-1.6-4.991-2.945-6.1-2.728-1.064.2,1.106,2.283-.247,1.819-1.312-.5-2.925-1.013-1.757.217,1.054,1.209,4.154,2.645,6.562,4.692a14.152,14.152,0,0,0,1.974,1.508c-16.235-9.041-32.006-18.755-47.228-29.306-3.866-4.866-7.7-9.671-8.309-11.077-1.447-3.182-15.585-24.169-16.257-26.3-.693-2.088-.424-2.842,4.505-1.055,5.085,1.768,36.523,26.6,51.818,36.569,15.306,9.92,82.337,47.543,98.252,56.389,6.128,3.395,13.658,7.3,21.011,11.025v8.521Q-1341.938,1069.25-1361.21,1061.549Zm-44.594-21.214a13.984,13.984,0,0,0,1.612,1.364s3.658,1.209,4.692,1.653c1.117.435.59-.4-.341-1.219a7.6,7.6,0,0,0-3.41-1.818,9.054,9.054,0,0,0-2.036-.311C-1405.784,1040-1406.032,1040.1-1405.8,1040.335Zm13.208.351c2.863.269,4.5.764,4.041.217-.4-.568-2.625-1.426-3.431-2.087a8.925,8.925,0,0,0-2.687-1.984,21.554,21.554,0,0,0-5.034-.526,8.193,8.193,0,0,0-2.449.247c-1.4.434-1.695,1.1-1.364,1.726a8.92,8.92,0,0,0,2.893,2.408c.92.33.259.072.734-.042a14.579,14.579,0,0,1,2.748-.173C-1395.771,1040.472-1394.112,1040.541-1392.6,1040.686Zm-18.22-3.587c.588.5,3.317,2.306,4.3,2.388.486.041,3.111.341,3.06.073,0-.259-.393-.8-2.171-1.8-1.747-1.033-2.264-1.272-3.163-1.272h-.113C-1409.97,1036.562-1411.4,1036.562-1410.817,1037.1Zm-4.465-8.638c.5,1.664,2.036,4.443,3.793,5.415,1.787.93,3.544,2.025,4.712,2.614,1.147.609,1.271.806,1.932.744.568-.093,1.508-1.436,4.413-1.436h.062c2.935.011,4.527.507,4.051-.413-.465-.941-3.235-2.914-5.012-3.638a3.532,3.532,0,0,0-2.635.156,2.89,2.89,0,0,1-1.127.34c-.6-.061-.692-.589-.713-1.043-.134-.651.113-1.075-1.188-1.653-1.407-.641-2.708-.754-3.887-1.261-1.012-.464-1.364-1.084-3.182-1.663a3.431,3.431,0,0,0-.986-.206C-1415.818,1026.417-1415.677,1027.134-1415.281,1028.462Zm.62,5.136c-.507.206-1.426.445-1.023.847.352.362,3.038,1.695,3.38,1.519.413-.113,2.026-.227,2.335-.32.3-.156-.444-.682-1.188-1.094a12.3,12.3,0,0,0-3.266-1A.578.578,0,0,0-1414.661,1033.6Zm-7.317-3.193c-.785.5-.785,1.746,0,1.994.754.289,2.356.755,3.048.96a4.634,4.634,0,0,0,1.954.445c.62-.051,1.137-.733,1.4-.95.29-.167.041-.4-1.591-1.147a16.206,16.206,0,0,0-4.392-1.354A2.14,2.14,0,0,0-1421.978,1030.4Zm-2.088-4.061a10.707,10.707,0,0,0,3.4,3.4c1,.537,6.914,2.976,7.006,2.656.072-.311-3.111-3.937-3.906-4.971a12,12,0,0,0-5.623-3.317,3.838,3.838,0,0,0-.734-.1C-1425.079,1024.008-1424.934,1024.949-1424.066,1026.344Zm-39.189-27.1c1.643.62,3.658,2.6,5.85,5.5a49.527,49.527,0,0,0,6.913,6.612,77.522,77.522,0,0,0-5.219-7.14,28.186,28.186,0,0,1-4.485-6.6c-1.561-3.13-7.183-6.086-7.183-6.086l-4.526-3.172s1.964,2.263,4.206,4.578.248.857,1.654,4.3a12.2,12.2,0,0,0,3.813,5.187s-2.319-3.239-1.33-3.239A.936.936,0,0,1-1463.255,999.239Zm67.867,47.151Zm11.441-22.6c-46.227-18.28-109.319-66.639-110.756-67.93-2.512-2.191,2.428-2.955,4.227-3.865,1.932-.919,19.594-7.594,57.8-10.736,38.135-3.11,71.722,0,84.744,3.42,4.754,1.239,14.395,3.654,25.931,6.364v9.641c-6.146-1.5-12.148-3.032-17.714-4.473-20.836-5.342-47.83-3.916-73.615-1.467-17.383,1.695-34.073,3.678-51.332,6.645-1.23.2-10.562,1.4-8.5,3.079.816.589,12.639,9.424,31.437,22.216,18.8,12.72,43.6,28.148,65.77,35.681,22.7,7.733,39.549,11.946,53.948,12.9v5.637C-1338.536,1039.589-1357.4,1034.305-1383.947,1023.791Zm8-2.595c-31.045-10.57-67.6-36.445-93.849-57.235l1.076-.165c3.172-.558,7.957-1.21,13.424-1.9,33.566-4.195,83.287-10.127,114.683-2.046,5.84,1.5,12.156,3.107,18.614,4.674v16.728a1.132,1.132,0,0,0-.6.1c-1.229.517-7.7.268-15.265-4.32-7.822-4.6-16.431-9.941-18.106-11.749-1.6-1.829-4.123-4.351-4.475-3.844a21.218,21.218,0,0,1-2.336,2.015s-3.287-.805-5.715-1.592c-2.4-.754-4.443-1.767-4.7-.868a16.321,16.321,0,0,0,2.47,2.056s6.935,3.834,7.824,5.187c.547.837.93,3.5,1.571,3.948,1.034,1.094,4.95,2.913,6.718,3.844,4.919,2.521,12.122,5.786,10.469,8.266-1.685,2.407-3.307,1.612-.785,2.975a3.677,3.677,0,0,0,5.146-1.519c.435-1.271-.166-3.182.475-2.986.62.155,8.092,7.978,8.526,12.183.414,4.184-7.906,7.935-8.6,8.411-.734.495-1.075,1.426,1.518,1.271s5.995-2.222,5.839-1.374c-1.2,5.569-8.091,6.334-12.473,8.029-4.331,1.674-7.988,1.2-7.71,1.777.31.527,5.457.94,7.079.652,1.736-.31,2.47-.9,2.119-.31a19.944,19.944,0,0,1-1.808,1.632s-5.612,2.769-8.981,2.573c-10.759-.754-21.733-3.968-29.236-9.31-7.442-5.414-9.839-7.873-10.5-7.5-.744.4.1,2.666.465,2.935a6.783,6.783,0,0,1,.713,1.291,28.781,28.781,0,0,0-8.775-2.861c-4.67-.693-8.96-.125-8.019.268.972.383,7.72,1.033,10.625,2.449,2.914,1.436,4.764,2.593,4.764,2.593a11.385,11.385,0,0,0-3.41,1.23c-.95.672-.889,1.622.392,1.426a22.286,22.286,0,0,1,6.955.672c3.287.671,13.477,3.957,13.477,3.957s-3.318.094-4.444.94c-1.209.806-1.467,2.4-.63,2.056a17.917,17.917,0,0,1,10.459-.992c4.9,1.177,16.711,4.278,23.976,2.345,7.2-1.9,9.539-6.882,9.539-6.882a5.607,5.607,0,0,1,1.932-.805h.094a.286.286,0,0,1,.166.3c-.217.857-.382,1.591.547,1.085a3.507,3.507,0,0,0,1.489-1.333,4.194,4.194,0,0,0,2.087.682s1.354.072.517-.465c-.568-.392,5.1-4.37,6.056-6.127a7.319,7.319,0,0,0,1.085-3.286,2.68,2.68,0,0,1,1.479,1.762v1.847a8.91,8.91,0,0,1-.6,1.837s.243.454.6,1.021v23.927C-1336.319,1032.409-1353.3,1028.93-1375.948,1021.2Zm46.775-6.364c-2.522,3.235-7.172,3.5-5.953,3.915s4.826.218,6.593-1.394c1.767-1.58,1.695-4.991.847-5.25a.464.464,0,0,0-.2-.04C-1328.295,1012.064-1327.747,1012.942-1329.173,1014.833Zm-51.818-21.11c1.065.536,4.32,1.312,4.847,2.469.4,1.2,1.282,5.229,5.488,6.924,4.247,1.674,8.06,1.9,7.978.92-.113-.972-3.927-1.25-4.516-2.346-.569-1.075-1.189-2.718-.041-2.718h.041l.124.011c1.4.238,2.108.609,2.78.424.579-.166,1.859-.031-.073-1.891-1.931-1.839-8.95-3.72-10.273-4.2a25.92,25.92,0,0,0-6.015-1.292q-.082,0-.158,0C-1382.192,992.022-1382.058,993.214-1380.992,993.722Zm13.094-.993c-.227.341-.8,1.58-.247,1.8.5.238,2.873.816,3.855,1.809.92,1.022,2.738,3.44,4.32,3.637a3.635,3.635,0,0,0,1.653-.465,3.607,3.607,0,0,1,1.57-.475h.094c1.105.051,3.142-.217,2.4-1.3-.7-1.054-3.762-3.224-7.875-4.505a16.271,16.271,0,0,0-4.409-.825C-1367.4,992.4-1367.791,992.582-1367.9,992.73Zm.661-10.529c-1.084.568-4.02,2.4-3.989,2.768s1.271,1.478,1.849,2.615c.6,1.105.878,3.162,1.975,3.4a33.693,33.693,0,0,1,9.259,3.2c3.659,2.129,4.817,2.645,6.088,2.532,1.229-.2.413-1.374,1.1-1.953.743-.517,1.344-.889.526-1.819-.816-.96-1.622-1.652-1.684-2.17a5.447,5.447,0,0,0-1.344-2.8c-.837-.776-1.1-1.137-2.129-1.292s-1.654-.166-1.447-.641c.258-.464,3.172-.207,3.1-.641,0-.435-2.036-1.736-2.686-2.511-.692-.816-.3-1.519-1.953-1.964a5.762,5.762,0,0,0-1.044-.051A28.824,28.824,0,0,0-1367.236,982.2Zm-28.43,5.135c-.124,1.468-1.509,3.844-.869,4.991,1.105,1.808,5.519,3.792,7.161,3.936a18.9,18.9,0,0,0,3.225-.3,21.2,21.2,0,0,1,3.317-.331,7.757,7.757,0,0,1,1.1.094c2.263.351,1.819.04,1.56-.32a5.477,5.477,0,0,0-3.018-1.84l-2.873-.5s2.842-.362,1.716-1.384c-1.085-1-3.68-.827-3.68-.827s1.406-1.642.383-2.036a27.263,27.263,0,0,0-4.847-.475c-.041-.744-.228-2.077-2.594-2.924a3.646,3.646,0,0,0-1.023-.286C-1396.716,985.139-1395.642,986.175-1395.666,987.336Zm20.442,3.41a10.675,10.675,0,0,0,.248,1.622s4.526,1.344,5.271,1.354c.765-.011.713-2.294.392-2.78-.2-.465-3.627-.95-4.455-.95-.351,0-.671-.094-.868-.094C-1375.028,989.9-1375.276,990.053-1375.224,990.746Zm-20.442-9.692c-.734.464,1.126,2.035,2.594,3.492a6.911,6.911,0,0,1,1.6,2.1,34.573,34.573,0,0,1,3.825.641c1.5.455,1.426.9,1.58,1.85a3.328,3.328,0,0,0,2.326,1.953c.775.207,2.346.279,3.565.485a15.783,15.783,0,0,0,3.887.362c.63-.247.031-3.047-1.458-4.949-1.87-2.367-7.028-4.909-10.831-5.673a30.292,30.292,0,0,0-5.158-.507A4.511,4.511,0,0,0-1395.666,981.054Zm19.6,7.305c.01.527.527.96,1.984,1.136,1.375.134,3.41.631,4.082.724.62.125.258-.724.073-1.239-.073-.486-.972-.95-2.843-1.21a13.408,13.408,0,0,0-1.354-.083C-1375.286,987.687-1376.083,987.956-1376.061,988.359Zm-44.46-4.485c5.26,2.572,7.741,4.278,10.893,4.485,3.183.31,3.824-.135,3.824-.135a34.985,34.985,0,0,1-9.054-3.2c-4.65-2.4-10.22-4.939-12.245-5.89-2.015-.878-8.63-1.364-9.26-1.529-.641-.145-.558-1,.63-1h.382c1.065,0,2.449.052,2.449.052a39.755,39.755,0,0,0-4.423-1.168,6.258,6.258,0,0,0-4.237.269c-1.22.609-2.316,1.384-3.255,1.787-.869.4-2.047.3-.682.641,1.395.372,5.332,1.4,5.332,1.4s.734,2.294,1.509,2.862c.765.589,1.591.207,2.49.134a48.044,48.044,0,0,1,7.151,1c2.17.507,4.95,1.892,6.1,1.768,1.1-.083,1.768-.185,1.768-.185a32.857,32.857,0,0,1-4.972-2.253c-1.447-.9-2.139-1.261-2.139-1.261a2.934,2.934,0,0,1,.4-.021C-1426.958,981.622-1424.539,981.854-1420.521,983.875Zm42.393,1.623a7.063,7.063,0,0,0,1.613,1.446s3.75.392,4.826.641c1.157.257.5-.878-.341-1.715a5.169,5.169,0,0,0-3.255-1.416h-.248C-1377.063,984.5-1378.552,984.969-1378.129,985.5Zm-3.121-4.568c-1.044.476-2.521,1.1-1.974,1.643.641.527,3.307,2.242,4.382,1.932.506-.124,3.183-.713,3.1-1.1-.052-.383-.393-1.075-2.2-1.932a5.748,5.748,0,0,0-2.3-.806A2.335,2.335,0,0,0-1381.25,980.929Zm6.914-2.655c-1.467,1.239-1.747,2.4-1.457,3.172a5.865,5.865,0,0,0,2.956,2.521c.91.135.279.01.734-.33a26.51,26.51,0,0,1,7.286-2.852c2.883-.7,4.516-.641,4.123-1.334-.424-.65-2.677-1.105-3.432-1.767-.858-.681-1.436-1.652-2.728-1.881h-.341C-1368.806,975.8-1373.034,977.127-1374.336,978.274Zm-46.888-1.581c4.062.848,8.237,2.645,13.445,4.185,5.126,1.468,8.144,2.294,8.547.94.352-1.343-1.9-3.793-7.151-5.59a17.729,17.729,0,0,0-5.436-1.147,6.879,6.879,0,0,0-.91.052,2.6,2.6,0,0,1-.8.02c-.785-.1-1.137-.02-.661.424.6.486,2.9.424,5.911,1.519,3.277,1.229,3.741,2.656,2.067,2.48-2.315-.28-6.521-1.809-9.415-2.635a81.435,81.435,0,0,0-9.828-1.84,2.772,2.772,0,0,0-.361-.03C-1426.7,975.072-1424.962,975.971-1421.224,976.693Zm34.135,2.109c-.517.506-1.384,1.229-1.044,1.683.331.436,3.008,1.386,3.442.993a19.1,19.1,0,0,0,2.315-1.508c.373-.269-.34-.775-1.105-1.106a7,7,0,0,0-2.191-.31A2.655,2.655,0,0,0-1387.089,978.8Zm-19.9-5.859c1.054,1.364,4.257,2.273,6.562,4.485,2.3,2.149,3.307,3.564,4.051,3.089.744-.547.321-2.676.239-3.348a9.817,9.817,0,0,0-.642-2.138s1.984.724,1.881.166a8.5,8.5,0,0,0-3.71-4.413c-2.523-1.426-4.982-2.439-6.129-1.725-1.064.734.983,3.048-.351,2.821a9,9,0,0,0-1.336-.135C-1407.239,971.743-1407.731,972-1406.993,972.942Zm19.449-1.613c.486,2.315,1.994,5.859,3.773,6.613,1.674.745,3.482,1.7,4.692,2.139,1.188.434,1.333.682,1.933.32.63-.32,1.59-2.8,4.587-3.916,2.966-1.147,4.548-1,4.062-2.242-.5-1.189-3.2-3.1-5.084-3.389a2.544,2.544,0,0,0-.331-.011c-1.622,0-2.718,2.025-3.369,2.159-.61.1-.724-.671-.755-1.26-.042-.951.145-1.633-1.2-2.036a7.32,7.32,0,0,0-2.015-.2,6.562,6.562,0,0,1-1.787-.155c-.993-.32-1.385-1.075-3.183-1.24q-.17-.012-.319-.012C-1388.091,968.1-1388,969.1-1387.544,971.33Zm-7,5.6c-.806,1.013-.848,2.851-.031,2.986.765.135,2.388.166,3.049.28a3.615,3.615,0,0,0,2.148-.228c.548-.269,1.138-1.54,1.386-1.9.341-.382.113-.661-1.654-1.1a13.378,13.378,0,0,0-3.3-.526A2.05,2.05,0,0,0-1394.54,976.93Zm-.889-9c-2,.165-2,1.622-.971,3.71a7.822,7.822,0,0,0,3.328,3.7c.992.464,7.007,1.757,7.007,1.261.113-.507-3-4.722-3.762-6a7.844,7.844,0,0,0-5.291-2.687Zm-30.109,62.97a3.284,3.284,0,0,1,.459.27C-1425.235,1031.074-1425.382,1030.989-1425.538,1030.9Zm-.254-.143.254.143C-1425.625,1030.855-1425.71,1030.809-1425.793,1030.756Zm0,0Zm33.433-25.731Zm69.7-4.452c.062-4.31-4.051-9.714-4.051-9.714s1.864,1.28,4.713,3.114v7.537A1.176,1.176,0,0,1-1322.662,1000.573Zm-4.95-13.134a32.386,32.386,0,0,1-4.93-3.865s6.594,1.85,9.446.352a5.283,5.283,0,0,0,1.1-.753V990.1A15.815,15.815,0,0,1-1327.613,987.44ZM-1510.4,973.045c-.486-1.24-3.566-8.4-6.077-14.7-2.759-6.934-3.535-8.733-3.535-8.733s-35.8-22.381-45.782-28.974c-4.04-4.309-8.133-8.649-11.978-13.1,0,0,34.157,21.731,42.466,27.041,8.289,5.3,20.794,11.78,22.147,13.392,1.374,1.6,12.939,24.242,15.254,29.77a51.945,51.945,0,0,1,2.429,7.357C-1500.49,981.2-1505.421,977.075-1510.4,973.045Zm-23.45-20.4.073-.041a.73.73,0,0,0,.071-.269c.559.57,1.758,1.84,2.987,1.84a8.6,8.6,0,0,0,3.019-.465l2.532-1.385s-2.005-.888-3.41-1.354a1.847,1.847,0,0,1-1.448-1.622s1.2-3.906,0-3.906c-1.084,0-2.728.909-6.19-.95s-6.222-5.539-5.57-3.235c.692,2.325,4.454,7.151,6.7,8.556a2.354,2.354,0,0,1,1.384,2.52c-.339-.2-.516-.32-.413.022-9.776-9-19.264-18.393-28.378-28.085,12.65,8.152,39.116,24.727,41.483,26.185.217.578,1.075,2.706,3.348,8.358,2.533,6.18,4.785,11.481,5.25,12.6C-1519.713,965.285-1526.823,959.063-1533.851,952.647Zm-.269-.289Zm21.972-10.447c-1.86-1.261-28.224-36.022-40-59.281s-27.924-65.471-28.586-87.232c-.609-21.679,12.423-48.669,23.274-69.78,10.872-21.11,40.378-46.881,71.722-48.68,31.346-1.891,46.527,13.6,60.8,28.83,14.324,15.2,12.712,33.179,9.932,38.77-2.758,5.591-9.012,9.62-13.631,4.681-4.64-5,1.219-9.631,1.219-9.631s1.24-.31.6-7.439c-.6-7.172-13.3-21.421-29.1-18.621-15.9,2.789-18.933,24.489-20.215,44.349-1.25,19.892,22.984,82.242,27.3,96.822,4.423,14.57,5.611,33.5-6.831,52.131-12.4,18.621-47.757,36.3-50.526,37.572a4.366,4.366,0,0,1-1.478.31C-1509.5,944.712-1510.547,942.914-1512.149,941.911ZM-1497,696.581c-16.566,6.7-42.589,28.117-56.448,55.19-13.755,26.784-16.721,40.154-16.39,50.539.351,10.261,10.985,55.22,33.184,91.181,22.323,36.144,24.421,36.434,24.421,36.434s13.074-8.453,25.3-17.711c12.041-8.938,25.434-20.066,27.212-26.959,3.266-12.763-6.324-47.513-13.693-66.887-8.144-21.214-16.35-39.856-16.03-63.269.311-24.408,5.953-38.978,13.652-48.6a44.054,44.054,0,0,1,14.262-11.883,46.869,46.869,0,0,0-14.3-2.087A57.734,57.734,0,0,0-1497,696.581Zm-31.479,237.653c-4.62-3.225-23.863-15.448-35.447-24.944-7.771-6.366-26.2-21.969-38.052-31.588-5.809-7.606-11.317-15.376-16.671-23.229l-1.539-4.65s-1.913-4.505-3.308-5.942c-1.488-1.4-1.189-1.695-1.488-3.4-.269-1.695-9.322-15.882-8.485-17.6a1.916,1.916,0,0,0-.279-2.543s-.631-1.415-1.715-1.415c-1.117,0-2.294-3.4-3.359-7.078-1.127-3.752-1.189-6.531-.32-7.947.827-1.446,3.11-1.116,3.11-1.116a8.788,8.788,0,0,0-1.994-3.72c-1.4-1.436,0-1.436,0-1.436a10.423,10.423,0,0,1,3.969,2.851c1.715,1.975,3.968,2.542,2.862,1.127-1.147-1.4-3.679-5.125-3.679-5.125a16.859,16.859,0,0,1,2.822.32c1.725.269,4.289,5.983,6.521,8.783,2.3,2.853,13.9,17.608,15.316,20.429,1.436,2.821,2.294,4.815,2.294,4.815s1.695,2.852,4.269,6.521c2.573,3.688,4.236,11.356,5.384,13.619,1.065,2.274,2.511,0,2.511,0s.29,1.147,2.594,3.42c2.3,2.232,6.78,5.932,6.78,5.932l-8.237-10.5.342-1.416s-3.194-6.221-4.548-8.483a54.557,54.557,0,0,0-7.4-8.226c-1.2-.868.888-1.7.888-1.7s-1.188-.32-2.894-3.451c-1.695-3.09-11.047-13.588-12.452-17.288-1.417-3.678-9.054-13.3-11.079-15.293-1.984-1.963-5.994-.558-7.379-1.7-1.447-1.127.827-4.826-.868-4.826-1.653,0-1.653,4.568-1.653,4.568h-2.852l-.321,6.468s-1.663-8.483-2.511-10.478c-.34-.806,1.033-10.219,0-9.63-1.994,1.115-1.994,8.214-1.994,8.214s-2.242-11.066-3.111-12.483c-.837-1.394-3.409-10.767-5.943-12.75-2.552-2.015-1.487-4.558-2.293-6.809s-1.158-4.247-2-2.563c-.817,1.706,1.7,7.358,1.7,7.358a9.8,9.8,0,0,0-3.11-2.294c-1.984-.827-3.948-1.643-5.385-.248-1.427,1.417,1.106,2.274,1.106,2.274l-.445,4.019c-1.987-4.5-4.045-8.909-5.9-13.433,0,.006,0,.01,0,.01l-.008-.028-.043-.106a.05.05,0,0,1,.017.012l-1.34-4.817c-2.791-6.107-7.255-27.734-9.673-38.357l10.666,18.291c5.653,9.383,19.046,27.3,25.35,35.545,6.077,8.06,48.253,64.262,49.813,66.35.94,1.787,20.845,39.307,25.267,45.95,4.537,6.81,24.1,34.586,26.354,38.275l1.085,1.663c-8.6-6.334-29.474-21.73-33.64-25.3-5.456-4.525-21.764-17.245-34.145-27.93l3.389,3.989c12.464,10.663,24.09,20.831,29.474,25.367,5.437,4.537,35.749,26.185,35.749,26.185,1.518,1.033,1.963.6,1.374-1.2l-3.917-6.366c-2.254-3.7-19.595-28.922-24.152-35.732-4.6-6.789-25.238-45.921-25.238-45.921s-43.7-58.248-49.947-66.472c-6.252-8.205-19.573-26.05-25.206-35.4l-12.277-20.1c-1.819-3.3-2.387-3.1-1.633.661,0,0,1.953,9.279,4.382,19.581,1.334,5.6,3.163,11.5,4.723,16.409a565.494,565.494,0,0,1-23.418-76.62c-4.455-28.933.454-36.135,4.878-36.353,4.443-.206,11.6,13.124,14.531,19.871,2.956,6.747-1.643,9.93-4.621,7.8-2.945-2.087-3.554-8.649-5.735-9.061-2.088-.445-1.24,12.658,1.7,21.761,3.008,9.083,13.135,36.114,16.928,47.316,3.773,11.18,14.562,19.84,19.461,26.008,4.857,6.1,26.405,35.277,45.2,60.821,18.788,25.574,34.229,58.321,40.129,67.4,5.963,9.063,45.411,64.221,47.106,67.807.517,1.157.579,1.612.227,1.612C-1522.679,938.574-1525.325,936.373-1528.477,934.234Zm-49.131-52.038a27.172,27.172,0,0,1,4.621,6.541c1.643,3.09,7.316,5.93,7.316,5.93l4.568,3.12s-1.964-2.252-4.227-4.535c-2.315-2.264-.341-.848-1.746-4.257a12.623,12.623,0,0,0-3.948-5.1s2.79,3.679,1.137,3.1c-1.685-.568-3.711-2.532-5.983-5.374a49.657,49.657,0,0,0-7.09-6.55A82.467,82.467,0,0,0-1577.608,882.2Zm-26.332-23.57c0,1.436-.29,4.568,2.863,5.663,3.048,1.177,2.811-1.1,2.542-2.8-.29-1.684.568-2.862-1.147-3.43-1.7-.548-1.148-1.437-1.7-3.08a4.8,4.8,0,0,1,0-3.162,9.643,9.643,0,0,0,.3-3.41c-.3-1.312-3.483-7.46-4.424-7.46l-.124.092c-.6,1.147-1.736,2.3-.31,3.99,1.457,1.7,4.557,7.357,2.284,5.4a18.4,18.4,0,0,1-3.432-3.989s-1.984,2.573-3.131,1.964a5.733,5.733,0,0,1-1.964-2.542,13.342,13.342,0,0,0-4.041-3.121,13.046,13.046,0,0,0-4.464-.837s2.562,7.636,4.753,7.916a44.786,44.786,0,0,0,4.878.32s-3.679,1.974-1.984,3.7c1.664,1.685,4.227,3.957,5.116,5.363.837,1.457,2.294,1.457,1.984-.29a21.792,21.792,0,0,1,0-4.526l2.563-1.7S-1603.94,857.21-1603.94,858.626Zm-9.632-20.7c1.105.858,1.684,8.235,3.359,9.062,1.695.847,2.294-2.521,2.294-2.521v-3.432s-3.711-4.226-3.711-6.809c0-2.532-.258-5.145-1.746-7.088-1.292-1.86-5.508-8.628-6.81-8.628l-.239.123c-.806,1.127,1.705,3.411,2.584,4.816a7.6,7.6,0,0,1,.506,3.978l-5.611-8.225-4.02-.569a33.91,33.91,0,0,0,1.715,4.247c1.178,2.273,2.873,5.095,2.873,5.095s-4.02-2.821-5.157-5.632c-1.1-2.883-1.912-4.9-3.1-5.394-1.126-.6-3.741,0-1.7,1.653,2.014,1.735,1.974,4.877,2.894,6.82a6.872,6.872,0,0,0,1.912,2.821,7.875,7.875,0,0,0,.9,5.125,29.13,29.13,0,0,1,1.952,5.116s3.452,1.706,5.726,2.552a22.232,22.232,0,0,0,5.064,1.138s-.714-4.343.088-4.342A.41.41,0,0,1-1613.572,837.929Zm-53.089-94.641c-2.533.93-3.1,4.36-3.41,6.841s.31,2.158.31,2.158.547-2.541,1.768-2.541a3.808,3.808,0,0,1,.4.041c1.509.641.609-1.508.609-1.508l.9-2.769s1.481-2.387.178-2.387A2.327,2.327,0,0,0-1666.661,743.288Zm-5.313,1.849c0,2.511.982,2.511.982,2.511a6.138,6.138,0,0,1,.921-3.72c1.012-1.55,3.389-2.615,2.479-2.811-.123-.011-.268-.011-.4-.011A4.267,4.267,0,0,0-1671.974,745.137Zm0-5.25c-1.859.909-1.188,3.74-1.188,3.74l2.45-2.831s.372-1.146-.383-1.146A2.148,2.148,0,0,0-1671.974,739.887Zm135.664,147.982c-21.838-35.4-31.1-75.68-31.4-85.27-.269-9.454,3.917-22.526,17.528-49.165,13.466-26.287,38.879-47.078,54.556-53.4a47.727,47.727,0,0,1,24.618-3.1l-6.026,4.175c-10.263,9.569-15.812,24.748-16.05,49.32-.341,23.994,7.854,47.5,16.195,69.242,7.43,19.706,16.453,53.267,13.55,64.655-2.574,10.137-40.811,35.794-48.48,40.857C-1513.843,922.692-1519.941,914.384-1536.31,887.869Zm23.758,23.89a5.01,5.01,0,0,0,2.439,2.832c1.261.475,2.533.868,3.338,1.239.837.4,1.354,1.282.941.135-.351-1.157-1.55-4.486-1.55-4.486s1.705-1.8,1.767-2.614c.2-.847-.568-1.219-1.157-1.829a29.4,29.4,0,0,1-2.841-5.539c-.682-1.8-.931-4.505-1.675-5.27a15.371,15.371,0,0,0-1.127-1.157,20.958,20.958,0,0,1,.631,4.723,14.475,14.475,0,0,0-.031,2.2s-1.685-1.52-2.109-6.655c-.413-5.115-.228-7.75-1.643-10.148-1.457-2.355-2.17-2.542-2.17-2.542a26.887,26.887,0,0,1,1.891,8.111c.279,4.578.91,9.89,1.158,11.791.279,1.922,3.327,6.83,3.545,7.357.154.526-.642.92-1.273.113-.661-.827-1.457-2.108-1.457-2.108A29.187,29.187,0,0,0-1512.552,911.759Zm13.415-14.9c1.747,3.027,4.7,3.152,3.783,1.891-.92-1.282-1.9-4.908-1.9-7.75s4.412-7.719,4.412-7.719a7.861,7.861,0,0,0,.9,4.588c1.23,1.86,2.75,4.113,4.289,4.082,1.57,0-.3-1.591-1.219-3.793a12.4,12.4,0,0,1-.32-7.4c.5-2.221,8.185-13.062,6.914-23-1.292-9.921-11.192-22.258-11.192-22.258l4.279,2.428-4.279-5.559,3.751-.641-5.964-3.648c.208.032.208-.072-.3-.733-1.271-1.561-7.762-9.3-7.762-9.3s3.751.941,5.208,1.55a5.443,5.443,0,0,0,3.183.661c1.519,0,5.323,1.529,5.323,1.529a6.458,6.458,0,0,0-1.571-2.479,30.714,30.714,0,0,0-3.483-2.821l3.142-4.3s-.93.341-3.142.951a5.148,5.148,0,0,1-3.141-.341,5.948,5.948,0,0,0-3.276-.269c-2.4.61-3.834,3.958-3.834,3.958a15.036,15.036,0,0,0-3.731-3.958c-2.511-1.891-9.3-5.673-9.3-5.673s4.713,0,8.754-.31c4.124-.29,9.621-.806,12.361-6.779,2.717-5.972,2.169-16.43,1.271-18.62-.982-2.181-.29-6.469-.29-7.73s-1.312-1.891-2.264.31c-.92,2.19,0,8.391,0,8.391s-4.547-7.44-8.671-14.983c-4.082-7.523-7.121-14.85-7.027-18.579,0-3.783,4.361-7.44,7.357-7.762,3.039-.257,6.574,3.142,6.574,3.142a5.3,5.3,0,0,0-.94-2.831c-.91-1.239-4.982-1.859-4.982-1.859s4.723-3.028,6.593-5.218c1.913-2.212.838-4.723-.992-7.739-1.768-3.029-1.819-6.273-.878-8.143.93-1.892,1.508.609,2.965.92,1.54.34,2.553-2.088,1.282-4.558-1.282-2.552-4.9-2.232-5.829,1.55a24.438,24.438,0,0,0,0,8.649l-1.261-.94s-1.881-.32-2.863,2.211c-.93,2.521,1.271,3.937,1.271,2.4,0-1.571,2.192-1.777,2.192-1.777s2.5,2.065,2.5,4.9c0,2.852-5.633,5.859-5.633,5.859v-3.648c0-1.892-1.9-3.142-3-1.271-1.168,1.912-.94,3.451.506,3.782s-.506,2.387-.506,2.387-5.664.33-7.235,7.233c-1.57,6.923,3.452,14.2,3.452,14.2l-1.881-.641-3.493-1.519s4.424,3.741,2.863,3.442a2.581,2.581,0,0,0-2.512,1.209s4.712.981,6.893,2.552c2.171,1.529,3.98,5.187,2.718,4.257-1.229-.951-4.3-2.49-6.78-2.2-2.522.341-1.891,3.461.652,4.391,2.48.961.961-.91,2.779-.91,1.871,0,7.742,5.013,10.562,9.951,2.812,4.877,4.6,12.09.94,17.939-3.649,5.869-15.564,5.012-15.564,5.012s1.871-1.582,1.871-3.121a5.591,5.591,0,0,0-2.822-5.239c-2.542-1.458-.608,1.25-.608,3.348,0,2.077,0,3.793-3.639,4.091-3.71.331-8.7-1.239-8.7-1.239a13.946,13.946,0,0,0,3.307-4.723c.941-2.52-.35-4.318-1.89-6.488s.33,2.811-2.346,6.261c-2.738,3.462-9.622,4.95-14.065,5.891-4.361.919-10.542,1.219-13.022-.052-2.5-1.229-3.359-2.149-3.359-.609,0,1.58,2.729,6.8,2.729,6.8L-1563,812.53l10.552-1.282s.651,2.211,2.211,2.211a22.649,22.649,0,0,0,8-1.9,23.416,23.416,0,0,1,8.082-2.159c2.852-.342,6.211,2.789,7.4,4.34,1.292,1.6-1.518,3.347.631,3.347,2.221,0,3.214-2.386,1.282-4.557a55.613,55.613,0,0,0-6.459-5.673,24.4,24.4,0,0,1,4.236.63c3.009.609,1.262.609,12.837,9.92,11.409,9.289,10.49,19.551,10.49,19.551s.661-.91.661-4.268a34.659,34.659,0,0,0-1.261-7.75,62.544,62.544,0,0,1,5.808,7.43c3.183,4.588,6.593,22.66,7.234,20.78.589-1.829.321-7.708.321-7.708l1.26,1.447s4.909,8.989,3.379,17.473c-1.613,8.474-9.343,16.4-14.231,17.949-4.919,1.591-9.643-3.141-9.643-3.141a5.954,5.954,0,0,0,.6,3.482c.93,2.181,4.94,3.638,4.94,3.638s-1.551,0-2.822,4.071a6.017,6.017,0,0,0,1.88,6.5,34.706,34.706,0,0,1,.28-3.947c.34-2.21,3.834-2.552,3.834-2.552A21.658,21.658,0,0,0-1499.137,896.859Zm-33.742-29.139c-.476,1.786-2.759,3.3-4.02,4.63-1.261,1.373-2.449,4.991-2.687,6.189-.279,1.229,1.167,1.177,2.418-1.292,1.229-2.5,4.805-2.1,7.069-4.486,2.274-2.438,2.77-6.8.61-9.392-1.3-1.653-2.874-2.8-4.63-2.8a4.622,4.622,0,0,0-2.779,1.148,8.04,8.04,0,0,0-2.739,5.808.883.883,0,0,0,.62,1.281c.733.217.6-2.077,2.273-3.09a2.315,2.315,0,0,1,1.229-.353C-1534.032,865.362-1532.693,866.747-1532.879,867.72Zm8.226-2.667c-1.291.878.693,1.25,2.976,3.751,2.356,2.47,6.139,7.75,7.958,8.98,2.831,1.931,5.912.991,6.139-.321.2-1.384-1.416-6.654-.859-8.214.58-1.612.135-1.664-.557-2.077a4.147,4.147,0,0,0-2-.589c-.372,0-.8.093-.9.423l-.724,2.015s-.6-3.307-2.128-3.9c-1.643-.558-1.384,2.191-1.384,2.191s-2.553-4.04-3.194-3.679c-.651.331-.62,3.947-.765,3.73-.939-.878-2.581-2.5-3.879-2.5A1.29,1.29,0,0,0-1524.653,865.053Zm16.99-.33c1.912,1.478,8.361,7.3,11.027,6.044,2.739-1.261,3.131-4.567,1.55-6.107a1.165,1.165,0,0,0-.785-.413,1.627,1.627,0,0,0-1.044.547c-.547.4-1.137.858-1.994.258-1.808-1.292-4.671-3.627-4.31-4.618s.993-.993.693-1.922-.1-1.943-3.091-3.131c-2.9-1.2-5.91,2.543-6.737,3.007a6.44,6.44,0,0,0-1.975,3.689c-.082,1.353,1.912,3.348,2.75,3.214.628-.1,1.406-1.14,2.5-1.14A2.252,2.252,0,0,1-1507.663,864.723Zm-11.141-2.17c1.54,1.4,2.677,1.416,3.049.982.289-.424.341-1.819.671-2.729.393-1.271.93-2.087.569-3.089-.3-.91-4.806-5.033-7.782-6.7a8.983,8.983,0,0,0-4.33-1.209c-2.088,0-3.824.889-4.486,2.377-.837,1.8-1.012,4.981-.341,6.356.7,1.415,3.173,2.17,5.467,3.244a14.311,14.311,0,0,1,3.224,1.87,5.7,5.7,0,0,1,1.085-2.531.7.7,0,0,1,.542-.308C-1520.608,860.82-1519.956,861.545-1518.8,862.553Zm-31.159-14.8c1.178,2.2,4.713,3.978,4.4,4.919-.341.9-.517,2.211,1.591,3.451s4.558.982,7.907,2.336c3.421,1.364,4.486,1.364,3.72-.145s-4.133-4.692-5.177-5.632c-2.067-1.891-3.318-2.893-3.318-2.893s1.065-.776.218-1.509c-.9-.713-4.527-3.565-6.676-3.565h-.135C-1549.508,844.821-1551.089,845.5-1549.963,847.756Zm32.389,4.318c0,.838-.6.859,1.188,2.667,1.8,1.736,2.667,2.49,2.667,2.49s2.088-2.159,2.088-2.873c0-.734-3.69-4.474-4.5-5a.172.172,0,0,0-.146-.083C-1516.984,849.274-1517.543,851.331-1517.574,852.074Zm-20.422-6a4.147,4.147,0,0,0,0,4.63c1.686,2.438,4.527,5.5,4.724,4.96a24.415,24.415,0,0,0,.392-2.543,2.965,2.965,0,0,0-.269-2.232c-.548-1.115-2.49-3.658-3.07-4.6-.372-.495-.681-.806-.941-.806S-1537.665,845.668-1538,846.071Zm30.55,7.368c1.612.733,5.519,2.945,5.809,1.746.206-.816-1.509-3.782-1.509-4.784.062-1.064-.351-3.461-2.036-4.536a7.73,7.73,0,0,0-3.669-1,4.886,4.886,0,0,0-3.566,1.313,3.655,3.655,0,0,0-.743,4.794c.507.765,2.45,3.328,2.863,3.214.272-.128.831-1,1.849-1A2.256,2.256,0,0,1-1507.446,853.439Zm-13.662-5.953a4.958,4.958,0,0,0,.94,4.164c.931.878,1.53,1.033,1.8-.093a16.85,16.85,0,0,1,1.138-2.7c.206-.465-1.138-1.436-2-2.17a1.255,1.255,0,0,0-.858-.423C-1520.529,846.268-1520.86,846.629-1521.108,847.487Zm-13.89-4.174c-.507.228-.827,2.108-.094,3.379.8,1.239,1.943,3.327,2.645,3.71.632.341,2.171-.63,1.592-1.653-.6-.992-1.9-3.886-2.417-4.733a1.568,1.568,0,0,0-1.292-.826A.727.727,0,0,0-1535,843.313Zm8.68,1.4c.113,1.57.8,3.751,1.726,4.3a8.4,8.4,0,0,0,2.294.8,17.849,17.849,0,0,1,.931-3.709c.351-.682-1.4-1.932-2.7-2.388a4.315,4.315,0,0,0-1.344-.268C-1526,843.447-1526.389,843.756-1526.317,844.718Zm-4.63-2.5c-1.4.351-1.58.547-.867,2.293.753,1.758,1.786,4.237,2.583,4.505.816.321,3.472.455,3.058-.93-.248-.764-1.249-4.247-1.777-4.9a3.622,3.622,0,0,0-2.326-1.075A2.293,2.293,0,0,0-1530.948,842.217Zm-1.126-19.871c-.682.961,1.219,8.649,2.139,10.623.909,2.014,3.8,7.843,4.414,8.431.547.6,2.335,1.168,4.061,2.46,1.85,1.251,5.023,4.34,5.468,3.731.32-.631,1.653-3.688,5.033-3.751,3.462-.124,4.341-.351,4.081-1.839-.309-1.508-2.242-2.718-3.131-4.309-.878-1.612-1.354-2.791-2.9-3.514a16.189,16.189,0,0,1-3.566-1.974,19.128,19.128,0,0,0-4.393-3.3,7.063,7.063,0,0,0-1.6-.5c-.207,0-.352.135-.445.455-.362.724-.269,1.4-.993.423-.816-.96-.413-3.431-1.084-4.154-.724-.734-2.77-.858-4.031-1.457-.96-.479-1.882-1.615-2.559-1.615A.584.584,0,0,0-1532.074,822.346Zm-19.822,14.7c.331,2.2,2.584,4.495,5.705,6.892,3.214,2.388,5.074,3,5.755,2.831.744-.155,2.688-3.813,1.892-4.712s-7.358-4.733-9.271-6.055a4.6,4.6,0,0,0-2.428-.817C-1551.317,835.19-1552.112,835.78-1551.9,837.05Zm59.951-7.822s3.989,2.087,5.86,8.039c1.912,5.972,2.511,8.174,2.511,8.174a14.905,14.905,0,0,0-.6-8.174c-1.561-4.577-2.056-5.207-3.783-7.088a3.469,3.469,0,0,0-2.686-1.188A3.589,3.589,0,0,0-1491.944,829.229Zm-59.724-.682c-.361,1.551,1.261,3.048,4.909,6.376,3.577,3.317,9.147,7.677,10.3,7.192,1.1-.486,2.6-.579,3.307-1.076.62-.455,1.023-.216.507-1.374-.569-1.156-4.444-6.065-6.284-10.828-1.819-4.785-1.664-6.1-3.6-7.585a6.628,6.628,0,0,0-3.668-1.384c-.786,0-1.354.227-1.551.764-.517,1.261,3.194,6.262,3.452,7.058.134.817-1.064-.34-2-1.272-1.447-1.477-2.522-2.779-3.091-2.087-.61.641,0,2.615-.464,3.1a1.334,1.334,0,0,1-.755.155h-.029C-1551.109,827.585-1551.6,827.595-1551.668,828.546Zm11.605-6.4c-.372.922,1.975,7.948,4,11.336a23.7,23.7,0,0,0,5,6.583c1.292.97,3.639,1.87,3.917,1.26.238-.651.072-.2-.537-1.292a81.429,81.429,0,0,1-4.588-11.79c-1.157-3.968-1.085-5.518-2.149-6.189a.789.789,0,0,0-.507-.2,2,2,0,0,0-.982.382,1.628,1.628,0,0,1-1.251.31,12.873,12.873,0,0,0-2.349-.773A.524.524,0,0,0-1540.063,822.149Zm17.3-38.1c0,.464-.155,3.73,0,4.794.29,1.023.465,1.467,2.388,2.138,1.892.641,3.482.238,3.658-.826.238-1.043-3.834-5.642-3.834-5.642a2.106,2.106,0,0,0-.816-.816,1.6,1.6,0,0,0-.538-.123C-1522.3,783.577-1522.679,783.732-1522.762,784.052Zm3.1-1.984a1.693,1.693,0,0,0,.424,1.767c.724.631,2.345,3.389,3.483,4.381,1.1.982,1.519.486,2.129-.062.714-.609,1.209-2.851.548-3.688-.579-.816-5.6-2.728-5.984-2.9a.962.962,0,0,0-.258-.052C-1519.579,781.51-1519.662,781.84-1519.662,782.068Zm-12.7-.919a9.484,9.484,0,0,0,2.874,4.629c1.075,1.094,3.576,3,4.475,2.852.868-.186.692-4.878.63-5.559s-.01-1.21-.609-1.6a11.029,11.029,0,0,0-4.434-.7h-.6a7.7,7.7,0,0,1-1.518-.051c-.266-.031-.465-.057-.607-.057C-1532.437,780.657-1532.487,780.762-1532.363,781.149Zm-9.559-9.714a15.365,15.365,0,0,0,1.808,9.073c2.5,4.938,4.961,5.817,5.746,5.962.754.134.795-.02.392-.692a24.245,24.245,0,0,1-4.95-6.913,20.582,20.582,0,0,1-1.787-8.039c.1-.507-.175-1.1-.538-1.1C-1541.52,769.729-1541.85,770.123-1541.922,771.435Zm16.2,7.822a4.785,4.785,0,0,0,2.356,2.718c1.457,1.013,2.346,1.085,2.759-.6.434-1.683-1.075-3.884-3.224-4.556a2.716,2.716,0,0,0-.972-.207C-1526.173,776.612-1526.317,777.924-1525.718,779.257Zm7.079-3.482c-.6.32-1.83,2.015-1.736,2.511a8.785,8.785,0,0,0,.878,1.643s3.576,1.354,4.361,1.581c.806.228.806-.6.527-1.8a8.121,8.121,0,0,0-2.109-3.844c-.517-.5-.827-.671-1.023-.671C-1518.038,775.2-1518.256,775.526-1518.638,775.775Zm-16.329.165c.548,2.388,1.064,2.831,2.521,3.048,1.5.269,5.374.186,5.2-.433a17.748,17.748,0,0,0-.652-1.943c-.382-.6-6.4-5.249-7.193-5.249h-.062C-1535.639,771.662-1535.639,773.553-1534.967,775.94Zm10.386-2.47c.941,2.005,1.085,2.005,1.9,2.2.8.207.775.051,1.385-.247a3.1,3.1,0,0,0,1.126-3.432c-.691-1.58-5.156-3.957-5.87-3.957h-.093C-1526.627,768.169-1525.521,771.518-1524.581,773.47Zm-8.567-5.6c-.465.713-1.148.992,1.334,3.6,2.489,2.562,4.133,3.575,5.053,3.513.951-.051.848-.9.445-2.852-.579-2.562-1.767-4.443-2.625-4.909a3.025,3.025,0,0,0-1.177-.175C-1531.309,767.043-1532.869,767.374-1533.148,767.87Zm33.029-5.467c1.581.124,1.84,3.038,2.533,2.8.62-.279,1.168-1.643,0-4.9a8.508,8.508,0,0,0-6.666-5.321h-.165c-2.1,0-5.8,1.88-5.881,2.4-.59,2.3,1.994,1.188,3.679,1.849a3.33,3.33,0,0,1,2.015,3.3.911.911,0,0,0,.93.93,7.829,7.829,0,0,1,3.315-1.063C-1500.278,762.394-1500.2,762.4-1500.119,762.4Zm-25.351-10.7c.621,3.42,6.439,7.1,6.439,6.179,0-.95-4.548-4.443-4.279-8.411.392-3.957,2.511-7.419.96-7.419S-1526.131,748.227-1525.47,751.7Zm27.884,4.753c1.168,1.591.92,0,.372-.941-.506-.9-1.446-4.505-4.753-5.808a7.135,7.135,0,0,0-2.708-.506c-2.2,0-3.846,1.033-3.8,2.109.176,1.456,2.542.257,5.333.257C-1500.387,751.564-1498.8,754.85-1497.587,756.452Zm-8.248-12.441a3.552,3.552,0,0,0-3.668,4.226c.134,1.2,1.53-1.3,3.153-2.512a2.15,2.15,0,0,1,1.353-.464c1.158,0,2.336.848,3.566,1.539,1.706.94,3.152,1.706,2.522.134-.695-1.528-3.151-2.931-6.5-2.931C-1505.55,744-1505.692,744.006-1505.834,744.011Zm-21.238-1.633c.311,1.911,1.262,2.861,1.262.95,0-1.881,0-3.152,2.894-4.7a7.925,7.925,0,0,1,3.421-1.292.833.833,0,0,1,.268.021s-.589-.8-4.082-.8C-1526.762,736.56-1527.422,740.539-1527.072,742.379Zm31.088-29.791c1.282.63,3.42-4.061,1.829-4.671l-.258-.051C-1495.86,707.865-1497.132,712.019-1495.984,712.588ZM-1547.234,912.431ZM-1511.817,902Zm-4.309-34.679Zm-151.92-102.485c.156-.62.6-2.355.838-3.492.226-1.447,1.942-.268,1.942-.268a5.5,5.5,0,0,0-.517,3.4,7.506,7.506,0,0,0,1.943,3.688s-.258-3.12-.258-4.288c0-1.1.857-2.253,3.658-.837,2.853,1.436,5.147,10.188,6.285,13.061,1.115,2.842,6.19,18.754,6.19,18.754s-.776-.63-2.48-1.746c-1.737-1.105,1.912,3.38,1.912,3.38l3.172,3.14a8.472,8.472,0,0,0-.878,2.832c0,1.157,4.578,4.794,4.578,4.794l.258,3.431-4.837-6.231s4.247,7.956,5.146,9.651c.806,1.706,2.781,6.8,5.064,10.21.93,1.344,3.091,6.272,5.508,11.687A553.084,553.084,0,0,1-1668.047,764.832ZM-1641.4,810.68Zm142.866-28.561Zm-15.119-22.082Zm-147.331-.713Zm-17.311-19.117Zm297.162-32.032c-46.009-21.153-79.38-55.014-81.995-93.443-2.1-31.837,9.456-49.258,26.529-53.422,17.093-4.185,19.439,6.664,16.556,9.9-3.06,3.5-6.078,2.79-8.713,2.076-1.83-.475-3.524-.961-4.857-.093-1.612,1.023-8.371,4.837-8.371,18.951,0,14.084,5.766,24.727,14.314,28.364,8.547,3.689,27.49,3.461,44.9-2.966,16.375-6.059,48.638-30.622,60.769-39.833v22.405q-3.615,2.673-7.276,5.327c-29.392,21.328-67.258,45.973-104.081,27.487a140.943,140.943,0,0,1-12.453-7.812s1.737,7.285,3.142,10.1c8.619,17.266,24.09,32.2,39.965,42.687,17.584,11.612,48.371,23.289,80.7,31.356V728.1C-1343.342,722.787-1364.526,715.825-1381.136,708.176Zm-121.948,16.532Zm102.8-50.426c-14.717-9.733-28.731-23.011-37.3-38.667,6.727,3.638,14.086,6.6,21.784,7.606,32.566,4.477,65.186-16.323,93.8-37.5v20.36c-8.311,1.319-9.914,4.043-16.33,5.092-8.247,1.354-7.72,2.471-4.929,3.008s6.914.827,9.632-.041c2.729-.765,4.454-1.355,4.454-1.355s-8.092,6.862-11.606,13.5c-3.607,6.644-10.18,16.326-17.063,16.584-6.975.3-13.848-3.327-15.471-7.471a19.247,19.247,0,0,1-.806-9.113,2.641,2.641,0,0,0-2.687,2.159,30.325,30.325,0,0,0,0,5.352s-5.354-7.264-10.84-7.15c-5.54.133-9.2,4.36-10.635,5.755-1.354,1.395-3.947,3.73-5.994,3.142-2.005-.579-1.932-1.188-1.695-3.276.186-2.1-.806-3.461-2.479-3.254-1.644.238-3.277,2.3-1.779,5.6,1.582,3.266,5.747,4.092,8.434,3.38a9.11,9.11,0,0,0,4.361-2.78s1.592,6.066,5.581,5.352,3.441-3.616,2.521-4.918a2.694,2.694,0,0,0-3.11-1.4c-1.043.361-1.292,1.643-1.84.248-.62-1.406.547-4.33,3.37-4.671,2.811-.32,6.882,2.336,8.329,3.472,1.354,1.2,5.022,4.381,5.022,4.381s-4.7.672-4.857,2.883c-.112,2.243,1.54,2.315,2.491.848.94-1.55,6.873-1.2,8.6-.134,1.819,1.064,5.074,4.691,12.753,4.2a29.2,29.2,0,0,0,13.828-4.919,3.94,3.94,0,0,1,1.581,2.439c.413,1.643.714,2.6,1.334,1.3a14.1,14.1,0,0,0,.444-4.308s1.8,3.007,3.059,3.617c1.292.589,3.5.34,1.757-1.272-1.757-1.652-2.471-4.463-2.232-7.616.258-3.162,1.54-4.112,1.54-4.112s1.261,5.756,3.834,8.329c2.533,2.562,7.1,1.747,8.288,1.271,1.147-.455,2.088-1.859,1.519-2.076-.548-.258-6.448-.92-8.32-6.066-1.881-5.188,1.034-14.456,8.63-18.517q.648-.349,1.313-.658v33.633a1,1,0,0,0-.6.276c-.5.63-.086,3,.6,4.94v33.047C-1353.5,696.849-1383.352,685.49-1400.286,674.282Zm35.923.393a9.9,9.9,0,0,0,9.157,8.195c5.447.227,7.752-2.077,7.318-3.235-.146-.278-.259-.373-.507-.373-.176,0-.486.084-.9.124a13.808,13.808,0,0,1-6.418-.692c-6.49-1.829-6.49-6.127-7.441-7.5-.237-.354-.481-.528-.7-.528C-1364.467,670.665-1364.88,672.033-1364.363,674.675Zm11.761,2.408a10.026,10.026,0,0,0,9.9.011,8.131,8.131,0,0,0,4.051-9c-.238-.847-.661-1.2-.992-1.2-.31,0-.579.3-.579.848-.145,1.168-1.975,4.526-4.8,6.344a10.855,10.855,0,0,1-7.194,2.067,6.494,6.494,0,0,0-.817-.064C-1353.9,676.089-1353.837,676.436-1352.6,677.083Zm-18.066-34.275a8.734,8.734,0,0,0,0,11.656c4.434,5.456,10.9,3.637,12,3.141.951-.517-.413-.754-1.426-1-1.065-.237-4.971-.113-7.389-3.72-2.45-3.554-2.512-8.37-1.83-9.775.373-.7.32-.95,0-.95A3.215,3.215,0,0,0-1370.668,642.808Zm7.617-5.8a9.819,9.819,0,0,0-3.554,11.035c1.891,6.035,9.414,7.916,10.18,7.4.785-.526-.352-.9-.352-.9a13.28,13.28,0,0,1-5-9.031c-.652-5.983.908-8.9,1.808-9.414.279-.185.206-.3-.124-.3A5.821,5.821,0,0,0-1363.051,637.011Zm9.984-3.08c-1.674.4-6.552,5.333-6.015,11.595.476,6.241,6.8,8.721,7.379,9.165,1.127.931,1.839.465,1.943-.589.145-1.013-.941-.806-1.7-3.191-.941-2.791,2.1-4.94,2.3-5.653.372-1.54-1.034-2.914-2.181-3.947-1.117-1.012-1.023-3.182-.331-4.805.507-1.488.29-2.635-.9-2.635A2.174,2.174,0,0,0-1353.067,633.931Zm-64.5,15.355a2.106,2.106,0,0,0,2.107,2.15,2.156,2.156,0,0,0,2.212-2.15,2.181,2.181,0,0,0-2.212-2.18A2.133,2.133,0,0,0-1417.565,649.286Zm-111.191,10.219c-20.711-1.156-26.384-18.2-28.089-23.59-1.675-5.364.569-13.351,5.683-10.5,5.085,2.893,3.669,5.414,3.669,9.413,0,3.938,2.273,6.479,8.795,5.931,6.541-.579,22.705-5.931,17.838-35.163-4.8-29.233-46.465-59.6-71.723-80.031-25.259-20.408-30.911-26.113-32.1-82.252a285.439,285.439,0,0,1,2.824-42.1h9.6c-.829,8.268-1.395,16.566-1.633,24.9-1.1,41.621-.838,59.436,6.531,68.983a55.653,55.653,0,0,0,9.984,9.661c17.083,13.093,40.253,27.631,54.081,43.38,14.076,16.067,29.061,33.861,34.228,55.685,1.8,7.42,3.131,15.117,3.131,19.467-.051,2.253.817,3.638,2.6,1.417,8.733-10.788,15.44-43.121,14.138-60.118-1.943-25.3-9.942-76.145-14.138-108.809-2.515-19.364-6.965-38.328-14.047-54.565h13.064c1.927,5,3.529,9.767,4.941,14.121,5.694,17.556,13.146,77.613,16.018,96.926,4.817,32.694,7.09,71.784,1.686,95.871-5.261,23.643-25.569,51.408-45.887,51.408C-1527.95,659.537-1528.353,659.506-1528.756,659.506Zm151.951-5.714ZM-1540.2,546.3c-8.4-9.589-22.964-20.667-36.016-30.318-5.58-4.123-23.986-16.915-28.017-22.081-6.2-8.009-7.824-25.182-6.635-67.538.217-8.1.74-16.624,1.519-25.147h11.441c.472,2.644,1.139,6.369.537,8.852a51.133,51.133,0,0,1-1.9,6.4s-2.047-2-3.442-2.356c-1.519-.4-2.914.352-2.046,1.426.878,1.115,1.622,3.543,2.046,7.213.341,3.648-.2,15.954-.2,15.954s-1.653-3.121-3.524-3.679c-1.829-.485-4.433.373-3.493.941.878.558,5.911,3.844,6.274,9.578.33,5.725.743,11.263,1.674,13.279a34.582,34.582,0,0,0,1.571,3.11s1.612,13.082,8.164,18.95a14.167,14.167,0,0,0,14,2.893s3.307,1.26,1.787,1.84c-1.426.547-2.7.909-1.426,1.447.6.247.682.444,2.831.495a4.04,4.04,0,0,0-.093,2.708s.5,1.415.95.113c.4-.868,3.307-2.625,6.614-2.956a22.963,22.963,0,0,0,5.818-1.446s-1.084,3.73-3.245,5.187c-2.2,1.447-2.976,4.733-2.976,4.733s-1.127,6.83-.33,6.83c.734,0,2.336-4,3.617-3.658,1.271.392,0,3.812.589,6.241.5,2.326.682-2.677,2.005-4.949,1.272-2.263,2.853-4.464,2.853-5.58,0-1.065-.579-8.453,1.239-10.643,1.819-2.16,9.549-9.548,9.549-9.548s-7.378,19.313-7,31.051c.33,11.759,8.474,21.214,11.409,23.756a15.143,15.143,0,0,1,4.485,8.783c.413,2.264,1.21,2.893,1.737.217.558-2.562-.982-5.983-2.8-8.793a33.291,33.291,0,0,0-5.147-5.724,121.024,121.024,0,0,0,13.043,5.011c6.1,1.539,13.145,1.116,17.186,6.717,2.6,3.637,1.209,14.734,1.023,16.626-.3,4.67-5.654,3.141-5.767,5.693-.444.744,1.561,2.9,5.281-.754.765-.754-.537,2.552-.537,4.174,0,1.643-.217,7.967.723,11.077.889,3.079,6.843,4.67,7.906,5.291s1.488,2.459,1.488,3.006c-.071,1.768-1.963,1.189-2.552,2.75a2.3,2.3,0,0,0,2.552,3.235c2.336-.156,4.641-5.994.888-9.342-.8-.734-2.118-1.55-1.911-2.315.123-.691,3.782-4.495.392-7.636a1.743,1.743,0,0,0-1.157-.548c-1.478,0-2.294,2.615-.651,3.452,2.108,1-.878,3.906-.878,3.906s-3.359-.724-4.082-3.244c-.745-2.542-.342-9.941-.208-11.418a6.733,6.733,0,0,1,1.21-2.739s2.966,3.225,3.845,1.427c1.2-2.573-2.3-1.427-3.555-3.576-1.251-2.191.754-6.965.485-11.934-.32-4.909-1.395-10.345-5.726-12.287-3.173-1.457-4.34-1.209-4.34-1.209s-.714.258-.714-1.55a2.758,2.758,0,0,1,1.292-2.511c.247-.352.8-1.313-.465-.692-1.178.579-1.768,1.311-1.768.692,0-.641.806-1.023.693-2.573,0-1.519-.207-2.119-.693-1.416-.424.713-2.708,4.5-4.413,5.011-1.85.548-3.679-.072-2.046-1.663,1.777-1.57,3.234-2.852,3.182-6.779a19.2,19.2,0,0,0-1.034-6.044s-.692,3.369-1.208,5.384c-.548,1.993-2.832,7.636-9.467,7.636-6.7,0-11.513-6.335-13.156-11.078-1.7-4.794-1.8-10.86-.475-16.791,1.271-5.911,3.834-15.573,4.145-14.147.257,1.437,2.841,3.741,4.558,4.342,1.788.619,2.345-1.417,0-3.194-2.3-1.694-3.4-6.592-.879-12.792a62.623,62.623,0,0,1,3.783-7.874s-1.271,8.732,2.45,10.488c3.71,1.726,5.747-.609,4.3-1.456-1.4-.878-4.589-6.769-1.137-17.846s9.57-24.9,11.605-27.786c2.005-2.893,4.641-7.181,3.576-7.181a33.423,33.423,0,0,1-4.092-.724s-.311-3.74-.311-6.6c0-2.883.62-5.508-.837-5.178-.475.094-1.994,3.9-1.994,3.9s-2.615,9.372-4.3,11.211c-1.033,1.137-4.929,3.461-5.312,4.371-1.178,1.819-2.171,6.923-2.749,9.382-1.49,6.665-3.277,16.193-7.876,16.41a10.628,10.628,0,0,1-2.935-.29c-1.519-.351-1.447-.681-2.046,1.7-.91,3.473,2.615,4.589,4.775,4.04,2.211-.567,4.929-2.562,4.929-1.786,0,.7-5.136,10.529-11.575,14.167-6.439,3.668-15.3,1.467-16.339,1.105-1.138-.392-2.77,0-1.344,2.562,1.5,2.542,6.511,3.6,5.012,4.144-1.478.59-9.621.754-14.355-2.366-4.774-3.079-5.323-4.525-6-3.813-.724.734.516,3.648,1.819,5.136,1.271,1.426,2.511,1.8,1.446,1.8a22.866,22.866,0,0,1-3.473-.536s-7.636-3.316-10.664-14.849c-3-11.594-3.628-24.5,1.446-35.711,5.146-11.2,7.865-15.2,6.955-15.593-.94-.372-4.041,2.015-4.361,2.563a18.362,18.362,0,0,1-1.674,1.663s1.674-5.569.559-10.519a20.714,20.714,0,0,0-1.486-4.387h28.5c-.765,1-1.632,2.448-2.517,3.758a14.729,14.729,0,0,1-2.418,3.048,19.709,19.709,0,0,1,.671,4.009c.052,1.819-.63,2.077-2.108,2.956a4.577,4.577,0,0,0-1.953,3.6c.072.9.661,2.49.95,3.844.434,1.859.517,3.482,1.219,3.937.6.434,4.692-2.149,6.965-5,2.822-3.492,4.361-10.282,3.762-14.477a19.422,19.422,0,0,0-1.79-5.668H-1563a18,18,0,0,1,.713,2.114,2.519,2.519,0,0,0,1.21,1.86c.764.373,3.028-.021,3.71-.021.713,0,1.085-.413.889-2.326a14.187,14.187,0,0,0-.156-1.628h1.122c.219,2.253.7,4.915,1.245,4.729.517-.156,2.683-2.558,4.611-4.729h2.054c-3.244,2.19-7.372,5.716-7.689,7.766-.31,2.253-.98,4.6-1.064,6.1-.123,1.436-.414,1.777.341,2.1a5.877,5.877,0,0,0,1.478.094c1.725,0,4.526-.041,6.728,1.426,3.194,2.056,3.773,3.627,5.405,2.315,1.6-1.333,3.2-5.332,2.852-7.336-.361-1.954-4.568-1.447-5.063-1.954-.527-.526.671-1.157,1.6-1.653,1.417-.743,2.584-1.065,2.523-2.584-.022-1.539-1.292-2.583-1.23-3.843a21.147,21.147,0,0,1,.556-2.425h19.032c7.263,16.019,11.877,35.164,14.475,55.134,4.258,32.6,12.185,81.043,14.488,106.307,1.778,19.954-5.735,44.06-9.487,54.311C-1505.421,592.826-1517.43,572.16-1540.2,546.3Zm22.159-2.5a14.3,14.3,0,0,1-.527,6.727,8.566,8.566,0,0,1-4.331,4.9c-1.323.393.072,1.323,1.9.393a8.18,8.18,0,0,0,5.146-6.944,11.982,11.982,0,0,0-1.416-6.417c-.166-.279-.31-.382-.475-.382C-1518.038,542.07-1518.37,542.721-1518.038,543.8Zm-12.206,8.05c.6.485,4.589,2.18,6.965.383,3.617-2.635,3.11-6.1,2.811-7.781-.165-1.116-.547-1.787-.764-1.787-.062,0-.134.186-.062.424a9.091,9.091,0,0,1-3.3,6.221c-2.428,1.622-5.437.629-6.16.629C-1531.546,549.932-1530.854,551.339-1530.244,551.845Zm-.476-12.741c-.228.827-.134,2.966-1.623,4.309-1.633,1.518-4.04,2.479-3.4,3.235.589.743,5.363,1.768,9.063-.755,2.46-1.715,4.506-4.928,4.506-7.573,0-2.129-.589-3.886-1.013-3.886-.093,0-.123.114-.2.258-.393,1.044-.393,2.624-2.088,3.523-1.6.888-2.645.1-3.606.1-.181,0-.345,0-.494,0C-1530.2,538.316-1530.552,538.384-1530.72,539.1Zm22.665-13.567a14.291,14.291,0,0,1,.609,12.2c-1.033,2.18-.217,3.7,2.264-.6,2.449-4.309,1.022-10.138-1.261-14.033a10.473,10.473,0,0,0-8.071-5.259h-.424c-2.171,0-4.827,1.239-4.124,2.138.083.217.692.051.692.051S-1510.711,520.773-1508.055,525.537Zm-20.225-26.5a22.887,22.887,0,0,0-2.1,5.188c-.258,1.229-.93,2.035.208,2.6s2.47,0,3.616-.826c1.168-.838,1.9-1.633,1.643-2.6-.258-1.022-1.768-4.732-1.768-4.732A3.282,3.282,0,0,0-1528.28,499.032Zm-4.6-1.209c-1.912.63-4.94,2.366-5.116,3.316-.113.92,2.491,5.384,4.041,4.608,1.591-.754,2.739-3.915,3.049-5.094a3.62,3.62,0,0,0,.113-2.314c-.156-.6-.217-.909-.661-.909A4.411,4.411,0,0,0-1532.879,497.823Zm8.153-1.706c-.268.331-.661.888-.444,1.364.2.485,2.345,5.91,3.1,5.91.837.041,2.831-2.986,3.286-4.619.5-1.6.982-2.624-.021-3.255a5.5,5.5,0,0,0-2.6-.372,4.257,4.257,0,0,1-1.7-.175,1.832,1.832,0,0,0-.269-.051C-1523.96,494.92-1524.508,495.849-1524.726,496.118Zm-61.532-2.407c-.124,1.6,1.984,5.146,5.405,5.694,3.452.527,8.816-2.191,8.816-3.214a.452.452,0,0,0-.124-.342,10.507,10.507,0,0,0-1.437.455,11.571,11.571,0,0,1-3.533.434c-5.424-.018-8.095-3.366-8.882-3.366C-1586.151,493.372-1586.231,493.473-1586.258,493.71Zm47.642-2.666c-.641,1.374-.733,6.055-.31,6.83.506.826,2.273.579,4.63-1.292,1.849-1.4,2.552-2.056,2.552-3.471s-1.043-2.915-3.565-3.834a3.99,3.99,0,0,0-1.406-.3C-1538,488.978-1538.16,490-1538.616,491.045Zm10.79-.878a4.168,4.168,0,0,0-1.984,5.29c.785,2.543,2.873,2.388,4.34.062,1.51-2.4,1.344-3.554.321-4.711-.569-.713-.848-.95-1.334-.95A4.337,4.337,0,0,0-1527.826,490.166Zm10.655,2.594a7.675,7.675,0,0,0,.454-6.293c-.454-1.282-.775-1.736-1.2-1.736a1.508,1.508,0,0,0-.889.5,61,61,0,0,0-4.475,5.033,3.208,3.208,0,0,0-.124,2.345.634.634,0,0,0,.786.392S-1518.038,494.217-1517.171,492.76Zm-14.283-12.793c-2.243,1.561-3.928,3.523-4.185,4.568-.269,1.012,4.733,5.218,5.28,5.094a7.346,7.346,0,0,0,1.85-1.043c.609-.362.3-6.087,0-8.04-.207-1.085-.454-1.633-.982-1.633A4.5,4.5,0,0,0-1531.453,479.967Zm4.847-1.55c-.816.5-.217.858-.156,3.782.135,2.9.631,6.283,1,6.728.435.433.91-.187,1.54-.765.641-.61,4.951-5.188,4.991-6.737.166-1.488-1.787-3.121-2.9-3.6a4.289,4.289,0,0,0-1.871-.372A4.756,4.756,0,0,0-1526.606,478.418Zm7.544-4.918c2.894,1.735,3.928,5.911,4.372,6.54.455.569.609.435.681-.888a9.83,9.83,0,0,0-3.255-8.359,5.755,5.755,0,0,0-3.6-1.406,7.212,7.212,0,0,0-3.649,1.137c-2.511,1.406-1.706,2.976-.962,2.47a5.106,5.106,0,0,1,2.535-.574A7.751,7.751,0,0,1-1519.062,473.5Zm-41.256-47.357c-.506.32-1.695,2.336-3.131,3.75-1.5,1.4-4.6,3.183-4.465,4.4a26.874,26.874,0,0,1-.691,11.408c-1.561,5.27-1.975,6.852-1.055,7.946.423.671,1.137.32,1.911,0a3.276,3.276,0,0,1,1.292-.362l.352.031c1.157.278,2,.63,3.1-.878,1.054-1.529,1.8-2.873,2.584-3.265a11.82,11.82,0,0,0,3.73-3.472c.879-1.354,1.354-1.912,1.085-2.986-.206-1.157-.579-1.725.269-1.9.382-.083.8.619,1.3,1.271.4.754.848,1.488,1.219,1.312.672-.382,1.727-3.286,2.636-4.578.92-1.229,2.243-1.312,2.109-3.275s-4.662-6.851-6.067-7.5a24.889,24.889,0,0,0-5.951-1.94A.526.526,0,0,0-1560.318,426.142Zm-13.466,10.106c-.145.651.083,3.338-1.1,5.043-1.168,1.725-4.124,5.332-3.628,6.964.269,1.127,2.46,1.457,2.987,2.624.4,1.126,1.819,2.914,3.172,1.4,1.323-1.508,3.338-6.179,3.359-11.139.051-4.949-1.178-6.013-1.86-6.013h-.031C-1571.531,435.122-1573.7,435.545-1573.784,436.248Zm-4.723-13.123c-.319,1.435,0,5.135-1.6,6.457-1.633,1.364-7.575,5.177-8.247,10.53-.785,5.394.589,9.33,2.1,8.566,1.468-.827.218-4.816,1.747-6.241,1.064-1.064,2.718-2.377,3.658-2.377a.651.651,0,0,1,.609.559c.248,1.539-.051,2.489.485,2.955.662.486,1.066,1.8,3.05-1.436,2.035-3.266,1.714-11.522,1.9-13.174a23,23,0,0,0-.847-6.748,1.008,1.008,0,0,0-.963-.767A2.3,2.3,0,0,0-1578.507,423.125Zm7.358,3.388c-1.674.972-2.45,1.5-2.45,1.5s-.021,5.342.373,6.065c.32.775,3.906-1.044,4.5-1.633.661-.579-.124-4.2-.569-5.053-.185-.6-.155-1.25-.754-1.25A3.364,3.364,0,0,0-1571.149,426.514Zm12.495-2.2c1.6.435,5.468,2.749,7.957,5.023,2.378,2.273,3.1,3.957,3.938,3.048.787-.941.455-3.42,1.117-4.723.61-1.259,1.881-2.52,1.6-3.957-.248-1.394-4.7-4.918-7.338-5.393a7.6,7.6,0,0,0-1.808-.176,5.875,5.875,0,0,0-3.8,1.127c-1.012.857-2.676,3.637-2.5,4.64.155.64.155.557.33.412h.135s.05,0,.161,0C-1558.81,424.308-1558.74,424.309-1558.654,424.312Zm-9.136-.34c-.847.485-1.261,1.229-.847,2.728.33,1.509.588,3.782.723,4.516.166.712,1.209-.218,2-.766.713-.558.971-1.746.589-3.74-.424-1.652-1.312-2.81-2.149-2.81Zm3.442-4.051a12.246,12.246,0,0,0-1.478,2.625s1.137,3.855,1.282,5.1c.123,1.24,1.54-.082,2.449-1.581.837-1.518,1.458-3,.6-4.422-.6-1.105-1.571-1.974-2.3-1.974A.672.672,0,0,0-1564.349,419.921Zm-10.841-15.438c-2.326.982-6.728,1.312-8.155,2.78-2.345,2.325-3.411,7.956-2.914,9.661.569,1.716,3.917,4.506,4.341,6.976.517,2.459.764,1.818,1.261,1.3a7.273,7.273,0,0,0,1.561-4.289l-.662-3.1s1.882,2.439,2.925.682c1.044-1.788-.445-4.174-.445-4.174s3.194.134,3.4-1.148c.135-1.312-1.643-4.877-1.384-4.971a5.509,5.509,0,0,0,3.307-4.484c.086-.958.014-1.306-.207-1.306C-1572.6,402.413-1573.635,403.789-1575.189,404.483Zm13.093,8.483c-.547.941-1.9,4.784-1.065,5.559.517.362,2.6,2.48,3.183,2.191.641-.289,1.457-1.147,1.974-3.523.5-2.345.5-2.924-.651-3.586a7.2,7.2,0,0,0-2.718-1.054A.812.812,0,0,0-1562.1,412.967Zm.94-6.251c-.548.651-.733,3.927,0,4.009.734.124,2.759,1.147,3.442,1.2.652.052,1.022-.961,1.2-1.964.083-1.012-.7-3.327-1.633-3.441a15.925,15.925,0,0,0-1.912-.207A1.3,1.3,0,0,0-1561.155,406.715Zm-143.672,196.858c-6.883-.652-8.392-12.318-8.392-12.318-1.333-13.784-2.191-30.658-2.439-50.56,0,0,.754-1.053,3.2.983,2.521,1.994,1.55,3.988.6,8.916-1.1,4.961-.6,12.41,1.922,15.428s2.925-1.518,3.432-15.428c.486-13.9-7.369-50.652,2.522-104.716,3.314-18,7.5-32.441,12.44-44.666h3.178c-8.82,16.2-11.569,29.883-13.687,41.535-6.862,37.324-5.032,73.945-5.032,73.945s3.462,37.085,3.193,43.585c-.476,10.239-.734,17.432-5.436,17.628-.641.361-.351,1.508-.134,2.283,1.271,4.093,6.221,6.954,8.154,4.019a76.694,76.694,0,0,0,7.069-15.809c2.718-8.421,6.139-19.571,10.149-31.671,6.428-19.385,15.574-42.015,18.623-53.753,6.81-26.36,16.421-65.8,18-72.332.407-1.734,1.4-5.141,2.7-9.43h7.548c-6.013,20.091-7.832,29.023-11.335,46.578-4.279,21.379-23.748,74.223-27.717,85.858-3.875,11.667-13.683,40.64-14.314,43.44-.62,2.718-7.224,26.485-13.962,26.485Zm-3.431-24.015c4.754-.652,5.643-10.561,5.766-19.747.041-6.406-3.276-38.326-3.41-39.948,0-1.58-1.922-40.248,4.733-76.465,1.664-9.28,3.369-20.273,12.763-38.212q1.035-1.981,2.136-3.974h5.411a7.541,7.541,0,0,1-1.025.885c-2.067,1.436-13.167,11.335-15.141,32.26-1.313,14.828-.382,17.567-.382,17.567a2.971,2.971,0,0,0-1.468,1.653,33.171,33.171,0,0,0,1.075,8.555c.776,3.245,2.078,7.791,2.078,7.791a4.263,4.263,0,0,1-2.078-1.859,4.6,4.6,0,0,0-2.728-1.83s-1.6-.837-.775.61l1.612,2.923v2.864s-2.025.217-1.219.837a7.471,7.471,0,0,0,2.924,1.012c.961.238,2.264-.206,2.264-1.012,0-.837.992-2.263,1.219-1.045a18.623,18.623,0,0,0,1.84,5.787,14.843,14.843,0,0,0,1.282,1.86s1.415,1.87-.631,1.87c-2.1,0-8.268-1.271-9.911,4.939-1.695,6.232-1.044,24.19-1.044,24.19s-2.367,3.09-2.367,4.981c0,1.8.362,3.844.641,2.583a25.463,25.463,0,0,1,1.571-3.554,6.829,6.829,0,0,1,1.54,2.769c.445,1.746.445,5.776,1.054,7.945.63,2.16,1.271,3.225,1.757,2.625a3.092,3.092,0,0,0,.351-1.695,20.923,20.923,0,0,1,1.975,9.011c0,5.228-.33,9.579-1.406,10.064s-2.047,1.685-1.571,2.336,1.747,2.634,2.8.919c.9-1.406,1.643-6.985,1.643-11.16.849.641,2.274,1.643,3.029.455.949-1.653-.9-3.409-1.117-2.521-.186.868-.62,1.478-1.344,1.034a3.706,3.706,0,0,1-.569-.373c-.031-.4-.072-.888-.072-1.23a61.889,61.889,0,0,0-2.047-8.969s2.047.113,1.416-1.116c-.63-1.261-2.17-.475-2.739-1.076a5.76,5.76,0,0,1-.837-3.9c.321-.609.156-.806.156-.806s2.326,1.116,2.656-.134c.279-1.23.279-1.84-.776-1.571-1.116.341-3-1.374-3.565-2.614-.63-1.23-.93-17.649,0-22.144.888-4.515,1.529-8.267,7.617-8.577,6.025-.3,7.564.311,7.4,1.437-.186,1.043-2.512,3.358-2.594,5.879-.228,2.46,0,4.961,1.219,5.559,1.189.61-1.446-4.3,2.947-7.605,4.34-3.245,4.05-2.624,8.1-3.544a14.445,14.445,0,0,1,3.359,0l-.631-5.8s3.028-4.144,3.679-5.374c.631-1.229-4.341.621-5.157.817s-.827-1.457-.827-1.457.073-2.046-1.9-1.033c-1.82,1.033-5.312,2.9-5.312,2.9s-1.871.4-1.871-1.23c0-1.673.207-3.937-.651-3.937-.775,0-1.654,3.3-.589,5.808,1.012,2.438,1.447,3.73,1.447,3.73s-3.545.785-5.818-5.395c-2.294-6.21-2.7-13.225-2.884-14.28-.217-1.054.589-4.96.589-4.96a2.145,2.145,0,0,0-1.447,1.664c-.392,1.426-1.023,4.743-1.023,4.743s-.383-11.822-.383-15.1a25.425,25.425,0,0,1,.651-5.817s1.4-2.243.559-2.48c-.827-.2-1.612.837-1.612.837a51.961,51.961,0,0,1,3.7-17.567c3.679-9.134,12.071-18.186,15.75-19.261,2.773-.774,4.512-.719,5.036-1.69h12.073a22.588,22.588,0,0,1-2.3,2.425c-2.481,2.087-5.788,9.094-5.788,11.345,0,2.315,2.119,3.349,3.938.238,1.85-3.12,5.591-8.266,4.31-9.123a.542.542,0,0,0-.258-.083c-1.106,0-2,4.536-4.259,5.476-2.49,1.044,3.276-7.223,4.517-8.452.471-.471,1.07-1.1,1.693-1.825h10.191c-1.219,4.011-2.142,7.188-2.542,8.852-1.54,6.541-11.13,45.931-18,72.311-3.049,11.677-12.175,34.214-18.592,53.547-4.03,12.141-6.521,23.033-9.27,31.443-2.873,8.732-5.447,14.693-6.594,15.521a3.676,3.676,0,0,1-1.952.661C-1706.5,583.547-1707.928,580.9-1708.259,579.559Zm7-38.946c.6.558,1.757,1.209,2.584-.32a7.98,7.98,0,0,0,.692-3.3.874.874,0,0,0-.166-.506c-.124,0-.2.217-.269.651a4.75,4.75,0,0,1-1.3,2.47,1.434,1.434,0,0,1-2.047-.1c-.078-.089-.135-.128-.171-.128C-1702.105,539.379-1701.847,540.18-1701.262,540.613Zm-1.922-6.138c.124.5.878,3.11,1.881,3.544,1.4.671,1.881-.992,2.088-1.788a2.462,2.462,0,0,0,.093-1.085h-.052l-.041.113c-.125.435-1.013,1.447-1.954.931s-1.633-2.377-1.87-2.769c-.023-.057-.046-.082-.068-.082C-1703.218,533.339-1703.288,534.016-1703.184,534.475Zm-.672-4.826c.073.631,1.179,3.348,2.688,4.164a1.763,1.763,0,0,0,2.511-.888c.465-.971.548-2.108.331-2.108h-.011l-.01.04c-.31.176-.579.869-1.157.414-.641-.454-.776-1.271-1.065-1.746-.217-.445-.34-.682-.6-.445-.134.216-.547,1.105-1.148.92-.54-.128-1.125-.589-1.392-.589C-1703.809,529.412-1703.865,529.477-1703.857,529.649Zm10.542-16.243c-.093.62-.589,5.228-.155,6.158a1.988,1.988,0,0,0,2.335.972,2.709,2.709,0,0,0,1.7-2.139c.217-.7-.185-.641-1.022-2.345a13.19,13.19,0,0,0-2.4-3.71l-.022-.041C-1693.17,512.3-1693.17,512.848-1693.315,513.406Zm-2.077-2.243s-2.283,1.1-2.283,2.345a6.4,6.4,0,0,0,1.652,4.02c.972,1.022,1.044.754,1.272-.135.176-.857.445-4.3.445-4.846a2.41,2.41,0,0,0-.62-1.54l-.124-.083C-1695.227,510.926-1695.392,511.163-1695.392,511.163Zm4.361-1.147a4.948,4.948,0,0,0-.506,1.322c-.187.517,1.591,3.906,2.324,4.919.672,1.074.931.992,1.427-.827a10.158,10.158,0,0,0,.466-4.505c-.114-.548-2.295-.992-3.256-.992A.981.981,0,0,0-1691.031,510.017Zm5.58-.507c.941,3.317-1.126,4.888-.619,6.427.517,1.561,2.046-.506,2.3-2.944.278-2.439-.527-5.7-1.686-6.852-.238-.279-.413-.434-.619-.434C-1686.4,505.707-1686.092,507.06-1685.451,509.51Zm-9.415-1.064c.042,2.025.455,2.717,1.179,3.017.815.269.878.238,1.364-.7a3.986,3.986,0,0,0-.652-4.1,1.4,1.4,0,0,0-.93-.517C-1694.5,506.141-1694.866,507.02-1694.866,508.446Zm-3.875.712c.32,1.22.393,2.005.993,2.005.62-.021,1.581-1.4,2.026-1.467.382,0,.33-1.013.33-1.333.052-.32.052-.827-.217-1.023-.186-.185-2.377-2.315-2.986-2.315h-.063C-1699,505.326-1699,508.011-1698.741,509.158Zm7.359-4.938c-.393,1.528-.517,2.242-.094,3.1a1.935,1.935,0,0,0,2.646.868c1.354-.434,1.043-1.364.93-2.44a13.578,13.578,0,0,0-1.881-4.277l-.186-.041C-1690.369,501.43-1691,502.318-1691.382,504.22Zm-6.088-2.635c-.279,1.013-.331,1.808.062,2.273a23.1,23.1,0,0,0,2.16,2.159,2.049,2.049,0,0,0,.517-.868,23.367,23.367,0,0,0-.517-4.062c-.269-.775-.239-1.487-.776-1.487h-.144C-1696.776,499.7-1697.222,500.654-1697.469,501.584Zm3.235-2.821c-.393,1.033,0,3.441.207,4.308a3.355,3.355,0,0,0,.62,1.467c.362.486.453.61,1.085-.579.6-1.136,1.436-3.482,1.188-4.1a4,4,0,0,0-2.47-1.488A.584.584,0,0,0-1694.235,498.764Zm10.21-33.242c.5.248.537,1.8,1.4.362.8-1.416,2.636-9.9,2.842-11.945a83,83,0,0,0,.61-8.36c-.175-.486-.961-.486-1.53-1.3-.609-.7-1.24-2.543-1.695-2.543h-.072s-.156.073-.156.166c-.516.92-2.47,5.135-4.6,6.613-2.2,1.478-2.894,2.119-3.255,3.772-.476,1.746.279,2.4.2,3.957-.083,1.6-.2,2.78.413,3.079.661.321,1.2.321,1.426.95.165.661.858,2.047,1.427,2.171.62.093.837.238,1.25-.764.507-1.013.754-1.768.785-.889.135.889-1.106,4.029-.971,4.587.124.3.506.259,1.023.166.226-.02.433-.063.625-.063A.857.857,0,0,1-1684.024,465.521Zm5.809-20.48c-.373.837-.124.238-.145,1.261-.145,2.139-.992,8.1-1.788,12.442-.9,4.3-1.591,6.2-1.167,6.561.352.372,1.406-1.58,1.922-1.695h.1c.113,0,.2.041.34.041.362.073.765.166,1.168-.714.589-1.259,1.912-8.731,1.984-12.047.2-3.349-.156-5.229-.486-5.911a1.121,1.121,0,0,0-.978-.554A1.023,1.023,0,0,0-1678.216,445.041Zm6.077-4.722c-.848,1.033-1.871,1.768-2.461,2.635-.589.826-.671.62-.795,1.8-.134,1.2.31,5.6-.424,10.581-.786,5.011-1.375,6.685-.786,7.708.558,1.043,2.222.372,3.018-1.363.765-1.685.435-6.252.682-7.131a.813.813,0,0,1,.166-.413h.176a11.567,11.567,0,0,0,.331,1.187c.31,1.179.485,2.315,1.137,1.283.547-1.054,1.023-3.162,1.509-3.947.474-.816.878-.207,1.591-2.138.713-1.9.361-3.111-.569-5.674-.792-2.207-2.182-4.735-3.147-4.735A.565.565,0,0,0-1672.139,440.319Zm-16.453-1.777c-.454,1.044-.454,3.9-.889,5.177-.486,1.282-1.21,4.009-.557,4.619.661.578,2.6-.083,4.587-3.276,2.016-3.182,2.429-5.362,2.429-6.045-.052-.691-.248-2.768-.506-2.768l-.021.021c-.269.3-1.385,2.325-2.14,2.057a4.98,4.98,0,0,0-1.776-.627A1.183,1.183,0,0,0-1688.592,438.542Zm10.728-1.829s-1.489,3.884-2,4.846a1.178,1.178,0,0,0,.682,1.84c.671,0,1.26-.31,1.778-2.139.537-1.84.982-4.164.641-4.505a.629.629,0,0,0-.435-.134A2.4,2.4,0,0,0-1677.864,436.713Zm10.086-3.555c-.517.5-3.172,5.641-3.049,6.428.114.764,2.687,2.779,3.327,3.523.734.816,2.3-.362,2.987-2.851a7.327,7.327,0,0,0-.816-5.993c-.692-1.034-1.333-1.406-1.829-1.406A.738.738,0,0,0-1667.777,433.158Zm-8.32,4.113c-.186.806-1.023,4.67-.837,5.125.123.507.464,1,1.436.041a4.109,4.109,0,0,0,1.467-3.12c.2-1.819.589-4.361.166-4.433A3.165,3.165,0,0,0-1676.1,437.271Zm-3.514-1.127c-.538,1.446-1.53,3.141-1.788,3.812-.289.569.083,1.3.424,1.809.166.506.672.061,1.457-1.777.8-1.809,1.219-3.9,1.012-4.6-.083-.3-.175-.434-.31-.434S-1679.188,435.287-1679.611,436.145Zm6.676-1.561c-.052.971-.382,3.958-.382,4.733-.052.8.413.671.806.176a13.067,13.067,0,0,0,1.364-4.1c0-1.209.134-3.286-.176-3.441h-.062A4.43,4.43,0,0,0-1672.934,434.584Zm-9.777.971c-.31.9.507,3.9.764,4.248.259.31,1.8-2.946,2.088-3.927s.682-1.292.248-2.718a15.591,15.591,0,0,0-.621-1.942S-1682.4,434.7-1682.711,435.555Zm-3.606-7.811c.547.816,1.467,2.469.815,3.823-.589,1.384-1.023,1.591-1.167,2.615-.207.94-.734,2.272.6,2.532,1.427.217,4.754-5.457,5.457-6.335a28.307,28.307,0,0,0,2.635-5.27c.579-1.446.279-2.811-.207-2.811h-.113s-.041.021-.062.124c-.589.475-2.108,3.265-2.686,2.263-.59-1.054-2.284-5.529-4.455-2.893-2.191,2.625-3.782,6.769-3.421,7.978.248.609.724-.186,1.262-.961.415-.591.825-1.175,1.136-1.175A.263.263,0,0,1-1686.317,427.744Zm17.589-2.429c-.382.744-.961,2.584-1.323,3.193a10.189,10.189,0,0,0-.661,2.594,42.755,42.755,0,0,0,.113,4.289c0,.858.207.971.95-.414a12.868,12.868,0,0,0,1.871-5.559c0-2.045-.445-4.226-.858-4.226A.177.177,0,0,0-1668.729,425.315Zm-7.741-2.5c-.4.641-.971,2.387-1.508,3.576a21.188,21.188,0,0,0-1.591,3.905c-.176.993.981,4.164,2.17,4.971,1.529,1.044,4.248-1.539,5.984-4.95a33.348,33.348,0,0,0,2.707-7.8c.145-1.446-1.085-1.374-2.119-1.664a2.357,2.357,0,0,1-1.312-.971,25.413,25.413,0,0,1-1.612,3.442c-.714,1.229-.849.526-1.23-.559-.155-.456-.382-.631-.621-.631A1.2,1.2,0,0,0-1676.47,422.815Zm8.248-.33a13.5,13.5,0,0,0,.941,4.649c.6,1.529.93,2.2.93,2.2s-.971,1.384-.7,1.881c.206.537,1.436,2.645,2.749,1.642a6.449,6.449,0,0,0,2.811-4.712c.124-2.221-1.374-2.945-.764-4.174.547-1.229,1.147-2.863.32-3.513a.392.392,0,0,0-.29-.094,3.611,3.611,0,0,0-1.489.775,2.892,2.892,0,0,1-2.066.868c-.819-.154-1.434-.427-1.842-.427C-1667.984,421.581-1668.183,421.793-1668.222,422.484Zm-6.067-1.188c.538-.672,1.87-4.837,2.047-4.837.2.837.754,2.5,1.85.961,1.177-1.539.061-1.24-.373-3.276-.454-2.056-.692-6.933-1.323-7.657-1-1.208-3.255,1.138-3.958,2.852s-1.777,7.42-2.769,9.548c-.972,2.129-.671,2.025-.475,2.325.2.238,1.209.145,1.715-1.033l1.312-2.728s-.972,3.761-.207,3.845c.734.061,1.7-3.142,1.7-3.142S-1674.774,421.988-1674.289,421.3Z" transform="translate(1715.658 -401.212)" opacity="0.11" fill="url(#radial-gradient)"/>
</svg>
