<svg xmlns="http://www.w3.org/2000/svg" width="29.085" height="19.72" viewBox="0 0 29.085 19.72">
  <path id="_2527719" data-name="2527719" d="M28.044,110.067a1.041,1.041,0,0,0,1.041-1.041v-5.277a1.041,1.041,0,0,0-1.041-1.041h-27A1.041,1.041,0,0,0,0,103.749v5.277a1.041,1.041,0,0,0,1.041,1.041,2.5,2.5,0,0,1,0,5A1.041,1.041,0,0,0,0,116.11v5.277a1.041,1.041,0,0,0,1.041,1.041h27a1.041,1.041,0,0,0,1.041-1.041V116.11a1.041,1.041,0,0,0-1.041-1.041,2.5,2.5,0,0,1,0-5ZM2.082,117.031a4.584,4.584,0,0,0,0-8.927V104.79h7.8v15.556h-7.8Zm24.921,0v3.314H11.968V104.79H27V108.1a4.584,4.584,0,0,0,0,8.927Z" transform="translate(0 -102.708)" fill="#fff"/>
</svg>
