<svg xmlns="http://www.w3.org/2000/svg" width="32.277" height="31.266" viewBox="0 0 32.277 31.266">
  <path id="iconfinder_icon-close_211652" d="M95.019,92.187,82.588,79.718,93.9,67.478a.744.744,0,0,0,0-1.05l-2-2.014a.736.736,0,0,0-.525-.214.759.759,0,0,0-.525.214L79.569,76.633,67.279,64.42a.736.736,0,0,0-.525-.214.759.759,0,0,0-.525.214l-2,2.014a.744.744,0,0,0,0,1.05l12.311,12.24L63.187,92.118a.742.742,0,0,0-.219.525.721.721,0,0,0,.219.525l2,2.014a.737.737,0,0,0,.525.22.725.725,0,0,0,.525-.22L79.569,82.809l12.4,12.437a.737.737,0,0,0,.525.22.725.725,0,0,0,.525-.22l2-2.014a.742.742,0,0,0,.219-.525A.769.769,0,0,0,95.019,92.187Z" transform="translate(-62.968 -64.2)" fill="#9b0448"/>
</svg>
