<svg id="e-learning" xmlns="http://www.w3.org/2000/svg" width="37" height="37" viewBox="0 0 37 37">
  <path id="Path_10540" data-name="Path 10540" d="M7.156,16.792A1.157,1.157,0,0,1,6,15.635V7.156a1.156,1.156,0,0,1,2.313,0v8.479A1.157,1.157,0,0,1,7.156,16.792Z" transform="translate(3.25 3.25)" fill="#fff"/>
  <path id="Path_10541" data-name="Path 10541" d="M13.51,16.792H9.656A1.157,1.157,0,0,1,8.5,15.635v-2.7a2.7,2.7,0,0,1,2.7-2.7h.771a.386.386,0,0,0,.385-.385V8.7a.386.386,0,0,0-.385-.385H9.656A1.156,1.156,0,0,1,9.656,6h2.313a2.7,2.7,0,0,1,2.7,2.7V9.854a2.7,2.7,0,0,1-2.7,2.7H11.2a.386.386,0,0,0-.385.385v1.542h2.7a1.156,1.156,0,0,1,0,2.312Z" transform="translate(4.604 3.25)" fill="#fff"/>
  <path id="Path_10542" data-name="Path 10542" d="M16.969,12.552H14.656a1.156,1.156,0,0,1,0-2.312h2.313a.386.386,0,0,0,.385-.385V8.7a.386.386,0,0,0-.385-.385H14.656a1.156,1.156,0,0,1,0-2.312h2.313a2.7,2.7,0,0,1,2.7,2.7V9.854A2.7,2.7,0,0,1,16.969,12.552Z" transform="translate(7.313 3.25)" fill="#fff"/>
  <path id="Path_10543" data-name="Path 10543" d="M16.969,15.3H14.656a1.156,1.156,0,0,1,0-2.312h2.313a.386.386,0,0,0,.385-.385V11.448a.386.386,0,0,0-.385-.385H14.656a1.156,1.156,0,0,1,0-2.312h2.313a2.7,2.7,0,0,1,2.7,2.7V12.6A2.7,2.7,0,0,1,16.969,15.3Z" transform="translate(7.313 4.74)" fill="#fff"/>
  <path id="Path_10544" data-name="Path 10544" d="M32.375,0H4.625A4.631,4.631,0,0,0,0,4.625v27.75A4.631,4.631,0,0,0,4.625,37h27.75A4.631,4.631,0,0,0,37,32.375V4.625A4.631,4.631,0,0,0,32.375,0ZM30.833,32.375H13.875a1.542,1.542,0,0,1-3.083,0H6.167a1.542,1.542,0,0,1,0-3.083h4.625a1.542,1.542,0,0,1,3.083,0H30.833a1.542,1.542,0,1,1,0,3.083Zm3.083-7.708H3.083V4.625A1.544,1.544,0,0,1,4.625,3.083h27.75a1.544,1.544,0,0,1,1.542,1.542Z" fill="#fff"/>
</svg>
