<svg xmlns="http://www.w3.org/2000/svg" width="43" height="42.568" viewBox="0 0 43 42.568">
  <g id="surface1" transform="translate(0)">
    <path id="Path_10539" data-name="Path 10539" d="M38.661,28.36,41.6,25.417a4.779,4.779,0,0,0-1.991-7.95,4.778,4.778,0,0,0-3.853-7.6l-.16,0a4.769,4.769,0,0,0-4.93-4.93c0-.053,0-.107,0-.16A4.777,4.777,0,0,0,22.517,1.4L21.5,2.416,20.484,1.4a4.773,4.773,0,0,0-8.148,3.537c-.054,0-.108,0-.161,0A4.77,4.77,0,0,0,7.4,9.869c-.054,0-.108,0-.162,0a4.778,4.778,0,0,0-3.852,7.6,4.78,4.78,0,0,0-2,7.938l.014.014,2.946,2.945.012.013a4.845,4.845,0,0,0,.564.483l-.871.871a4.224,4.224,0,0,0-1.215,3.251A4.907,4.907,0,0,0,4.286,36.2l4.983,4.983a4.746,4.746,0,0,0,6.7,0l2.316-2.316a15.254,15.254,0,0,0,6.42,0l2.315,2.316a4.746,4.746,0,0,0,6.7,0L38.714,36.2c1.848-1.848,2.058-4.646.468-6.237L38.12,28.9l.524-.524ZM15.551,3.222a2.2,2.2,0,0,1,3.109,0l3.946,3.946a2.2,2.2,0,0,1-1.554,3.754h0a2.185,2.185,0,0,1-1.554-.644l0,0L15.552,6.333l-.01-.01A2.2,2.2,0,0,1,15.551,3.222Zm-4.938,8.036a2.2,2.2,0,0,1,3.114-3.1h0l0,0L17.673,12.1l.008.008.979.979A2.2,2.2,0,1,1,15.551,16.2l-.016-.015-.967-.967,0,0-3.946-3.946h0ZM5.687,13.087a2.2,2.2,0,0,1,3.109,0l3.95,3.95a2.2,2.2,0,0,1-3.113,3.1l-.015-.015L5.7,16.209,5.687,16.2a2.2,2.2,0,0,1,0-3.109ZM3.233,23.608l-.015-.015A2.2,2.2,0,0,1,6.33,20.486l2.959,2.959A2.2,2.2,0,0,1,7.735,27.2h0a2.24,2.24,0,0,1-.32-.023l-.024,0a2.182,2.182,0,0,1-1.2-.608l-.01-.01ZM18.221,36.2l-.033-.007-.077-.017-.057-.008-.064-.007-.068,0h-.055l-.072,0-.052,0-.07.01-.055.01-.063.015-.06.017-.055.019-.063.026-.05.023-.062.032-.05.029-.055.035-.054.04-.044.034c-.021.018-.041.036-.061.055l-.023.021-2.825,2.825a2.165,2.165,0,0,1-3.059,0L6.11,34.376a2.335,2.335,0,0,1-.7-1.525,1.678,1.678,0,0,1,.464-1.3l1.78-1.78.082,0h0a4.775,4.775,0,0,0,4.447-6.516,4.77,4.77,0,0,0,3.731-3.992,4.8,4.8,0,0,0,1.193.15h0a4.776,4.776,0,0,0,4.777-4.777,4.813,4.813,0,0,0-.149-1.191,4.777,4.777,0,0,0,2.7-8.106L23.323,4.239,24.34,3.222A2.2,2.2,0,1,1,27.45,6.331a1.289,1.289,0,0,0,1.823,1.823,2.2,2.2,0,1,1,3.109,3.11A1.289,1.289,0,0,0,34.2,13.087a2.2,2.2,0,0,1,3.126,3.092l-.017.017-1.849,1.849a1.289,1.289,0,0,0-.1,1.7l.066.085a1.289,1.289,0,0,0,1.676.314,2.2,2.2,0,0,1,2.678,3.445l-2.959,2.958-.017.018-6.351,6.351A12.71,12.71,0,0,1,18.221,36.2Zm19.138-4.415c.565.566.347,1.776-.468,2.591l-4.983,4.983a2.165,2.165,0,0,1-3.059,0l-1.371-1.371a15.259,15.259,0,0,0,4.8-3.243L36.3,30.724Zm0,0" transform="translate(0)" fill="#fff"/>
  </g>
</svg>
